<svg width="1039" height="247" viewBox="0 0 1039 247" fill="none" xmlns="http://www.w3.org/2000/svg">
<rect x="10" y="10" width="1019" height="227" fill="white"/>
<path d="M88 66C88 54.9543 96.9543 46 108 46H224C235.046 46 244 54.9543 244 66V182C244 193.046 235.046 202 224 202H108C96.9543 202 88 193.046 88 182V66Z" fill="#50536E"/>
<path d="M119.037 88.0524C119.037 77.0067 127.991 68.0524 139.037 68.0524H160.775C162.984 68.0524 164.775 69.8432 164.775 72.0524V110.607C164.775 112.816 162.984 114.607 160.775 114.607H123.037C120.827 114.607 119.037 112.816 119.037 110.607V88.0524Z" fill="white"/>
<path d="M168.042 72.0524C168.042 69.8432 169.833 68.0524 172.042 68.0524H195.578C205.631 68.0524 213.78 76.2017 213.78 86.2543V86.2543C213.78 87.9298 212.422 89.288 210.746 89.288H172.042C169.833 89.288 168.042 87.4971 168.042 85.288V72.0524Z" fill="white"/>
<rect x="168.042" y="93.3717" width="45.7382" height="21.2356" rx="4" fill="white"/>
<rect x="119.037" y="118.691" width="45.7382" height="21.2356" rx="4" fill="white"/>
<path d="M119.037 148.011C119.037 145.801 120.827 144.01 123.037 144.01H160.775C162.984 144.01 164.775 145.801 164.775 148.01V175.948C164.775 178.157 162.984 179.948 160.775 179.948H143.037C129.782 179.948 119.037 169.203 119.037 155.948V148.011Z" fill="white"/>
<path d="M168.042 122.691C168.042 120.482 169.833 118.691 172.042 118.691H209.78C211.989 118.691 213.78 120.482 213.78 122.691V159.948C213.78 170.993 204.826 179.948 193.78 179.948H172.042C169.833 179.948 168.042 178.157 168.042 175.948V122.691Z" fill="white"/>
<path d="M306.352 80.736V84.768H295.888V114H291.232V84.768H280.768V80.736H306.352ZM318.275 88.512C318.659 88.512 319.091 88.544 319.571 88.608C320.083 88.64 320.579 88.704 321.059 88.8C321.539 88.864 321.971 88.944 322.355 89.04C322.771 89.104 323.075 89.168 323.267 89.232L322.499 93.12C322.147 92.992 321.555 92.848 320.723 92.688C319.923 92.496 318.883 92.4 317.603 92.4C316.771 92.4 315.939 92.496 315.107 92.688C314.307 92.848 313.779 92.96 313.523 93.024V114H309.059V90.096C310.115 89.712 311.427 89.36 312.995 89.04C314.563 88.688 316.323 88.512 318.275 88.512ZM336.022 110.784C337.078 110.784 338.006 110.768 338.806 110.736C339.638 110.672 340.326 110.576 340.87 110.448V103.008C340.55 102.848 340.022 102.72 339.286 102.624C338.582 102.496 337.718 102.432 336.694 102.432C336.022 102.432 335.302 102.48 334.534 102.576C333.798 102.672 333.11 102.88 332.47 103.2C331.862 103.488 331.35 103.904 330.934 104.448C330.518 104.96 330.31 105.648 330.31 106.512C330.31 108.112 330.822 109.232 331.846 109.872C332.87 110.48 334.262 110.784 336.022 110.784ZM335.638 88.416C337.43 88.416 338.934 88.656 340.15 89.136C341.398 89.584 342.39 90.24 343.126 91.104C343.894 91.936 344.438 92.944 344.758 94.128C345.078 95.28 345.238 96.56 345.238 97.968V113.568C344.854 113.632 344.31 113.728 343.606 113.856C342.934 113.952 342.166 114.048 341.302 114.144C340.438 114.24 339.494 114.32 338.47 114.384C337.478 114.48 336.486 114.528 335.494 114.528C334.086 114.528 332.79 114.384 331.606 114.096C330.422 113.808 329.398 113.36 328.534 112.752C327.67 112.112 326.998 111.28 326.518 110.256C326.038 109.232 325.798 108 325.798 106.56C325.798 105.184 326.07 104 326.614 103.008C327.19 102.016 327.958 101.216 328.918 100.608C329.878 100 330.998 99.552 332.278 99.264C333.558 98.976 334.902 98.832 336.31 98.832C336.758 98.832 337.222 98.864 337.702 98.928C338.182 98.96 338.63 99.024 339.046 99.12C339.494 99.184 339.878 99.248 340.198 99.312C340.518 99.376 340.742 99.424 340.87 99.456V98.208C340.87 97.472 340.79 96.752 340.63 96.048C340.47 95.312 340.182 94.672 339.766 94.128C339.35 93.552 338.774 93.104 338.038 92.784C337.334 92.432 336.406 92.256 335.254 92.256C333.782 92.256 332.486 92.368 331.366 92.592C330.278 92.784 329.462 92.992 328.918 93.216L328.39 89.52C328.966 89.264 329.926 89.024 331.27 88.8C332.614 88.544 334.07 88.416 335.638 88.416ZM368.781 94.32C368.237 93.872 367.453 93.44 366.429 93.024C365.405 92.608 364.285 92.4 363.069 92.4C361.789 92.4 360.685 92.64 359.757 93.12C358.861 93.568 358.125 94.208 357.549 95.04C356.973 95.84 356.557 96.8 356.301 97.92C356.045 99.04 355.917 100.24 355.917 101.52C355.917 104.432 356.637 106.688 358.077 108.288C359.517 109.856 361.437 110.64 363.837 110.64C365.053 110.64 366.061 110.592 366.861 110.496C367.693 110.368 368.333 110.24 368.781 110.112V94.32ZM368.781 77.52L373.245 76.752V113.28C372.221 113.568 370.909 113.856 369.309 114.144C367.709 114.432 365.869 114.576 363.789 114.576C361.869 114.576 360.141 114.272 358.605 113.664C357.069 113.056 355.757 112.192 354.669 111.072C353.581 109.952 352.733 108.592 352.125 106.992C351.549 105.36 351.261 103.536 351.261 101.52C351.261 99.6 351.501 97.84 351.98 96.24C352.493 94.64 353.229 93.264 354.189 92.112C355.149 90.96 356.317 90.064 357.693 89.424C359.101 88.784 360.701 88.464 362.493 88.464C363.933 88.464 365.197 88.656 366.285 89.04C367.405 89.424 368.237 89.792 368.781 90.144V77.52ZM379.526 101.568C379.526 99.36 379.846 97.44 380.486 95.808C381.126 94.144 381.974 92.768 383.03 91.68C384.086 90.592 385.302 89.776 386.678 89.232C388.054 88.688 389.462 88.416 390.902 88.416C394.262 88.416 396.838 89.472 398.63 91.584C400.422 93.664 401.318 96.848 401.318 101.136C401.318 101.328 401.318 101.584 401.318 101.904C401.318 102.192 401.302 102.464 401.27 102.72H384.182C384.374 105.312 385.126 107.28 386.438 108.624C387.75 109.968 389.798 110.64 392.582 110.64C394.15 110.64 395.462 110.512 396.518 110.256C397.606 109.968 398.422 109.696 398.966 109.44L399.59 113.184C399.046 113.472 398.086 113.776 396.71 114.096C395.366 114.416 393.83 114.576 392.102 114.576C389.926 114.576 388.038 114.256 386.438 113.616C384.87 112.944 383.574 112.032 382.55 110.88C381.526 109.728 380.758 108.368 380.246 106.8C379.766 105.2 379.526 103.456 379.526 101.568ZM396.662 99.12C396.694 97.104 396.182 95.456 395.126 94.176C394.102 92.864 392.678 92.208 390.854 92.208C389.83 92.208 388.918 92.416 388.118 92.832C387.35 93.216 386.694 93.728 386.15 94.368C385.606 95.008 385.174 95.744 384.854 96.576C384.566 97.408 384.374 98.256 384.278 99.12H396.662ZM439.24 114C438.344 111.696 437.384 109.072 436.36 106.128C435.368 103.152 434.456 100.064 433.624 96.864C432.792 100.064 431.88 103.152 430.888 106.128C429.896 109.072 428.952 111.696 428.056 114H424.168C422.696 110.704 421.256 106.944 419.848 102.72C418.44 98.496 417.112 93.936 415.864 89.04H420.664C420.984 90.544 421.368 92.176 421.816 93.936C422.264 95.696 422.728 97.456 423.208 99.216C423.72 100.976 424.248 102.672 424.792 104.304C425.336 105.936 425.848 107.36 426.328 108.576C426.872 107.072 427.4 105.488 427.912 103.824C428.456 102.128 428.968 100.432 429.448 98.736C429.928 97.008 430.376 95.328 430.792 93.696C431.24 92.032 431.624 90.48 431.944 89.04H435.64C435.928 90.48 436.28 92.032 436.696 93.696C437.112 95.328 437.56 97.008 438.04 98.736C438.52 100.432 439.016 102.128 439.528 103.824C440.072 105.488 440.616 107.072 441.16 108.576C441.64 107.36 442.136 105.936 442.648 104.304C443.192 102.672 443.72 100.976 444.232 99.216C444.744 97.456 445.224 95.696 445.672 93.936C446.12 92.176 446.504 90.544 446.824 89.04H451.432C450.184 93.936 448.856 98.496 447.448 102.72C446.04 106.944 444.6 110.704 443.128 114H439.24ZM456.153 114V77.52L460.617 76.752V89.52C461.449 89.2 462.329 88.96 463.257 88.8C464.217 88.608 465.161 88.512 466.089 88.512C468.073 88.512 469.721 88.8 471.033 89.376C472.345 89.92 473.385 90.704 474.153 91.728C474.953 92.72 475.513 93.92 475.833 95.328C476.153 96.736 476.312 98.288 476.312 99.984V114H471.849V100.944C471.849 99.408 471.737 98.096 471.513 97.008C471.321 95.92 470.985 95.04 470.505 94.368C470.025 93.696 469.385 93.216 468.585 92.928C467.785 92.608 466.793 92.448 465.609 92.448C465.129 92.448 464.633 92.48 464.121 92.544C463.609 92.608 463.113 92.688 462.633 92.784C462.185 92.848 461.769 92.928 461.385 93.024C461.033 93.12 460.777 93.2 460.617 93.264V114H456.153ZM492.022 110.784C493.078 110.784 494.006 110.768 494.806 110.736C495.638 110.672 496.326 110.576 496.87 110.448V103.008C496.55 102.848 496.022 102.72 495.286 102.624C494.582 102.496 493.718 102.432 492.694 102.432C492.022 102.432 491.302 102.48 490.534 102.576C489.798 102.672 489.11 102.88 488.47 103.2C487.862 103.488 487.35 103.904 486.934 104.448C486.518 104.96 486.31 105.648 486.31 106.512C486.31 108.112 486.822 109.232 487.846 109.872C488.87 110.48 490.262 110.784 492.022 110.784ZM491.638 88.416C493.43 88.416 494.934 88.656 496.15 89.136C497.398 89.584 498.39 90.24 499.126 91.104C499.894 91.936 500.438 92.944 500.758 94.128C501.078 95.28 501.238 96.56 501.238 97.968V113.568C500.854 113.632 500.31 113.728 499.606 113.856C498.934 113.952 498.166 114.048 497.302 114.144C496.438 114.24 495.494 114.32 494.47 114.384C493.478 114.48 492.486 114.528 491.494 114.528C490.086 114.528 488.79 114.384 487.606 114.096C486.422 113.808 485.398 113.36 484.534 112.752C483.67 112.112 482.998 111.28 482.518 110.256C482.038 109.232 481.798 108 481.798 106.56C481.798 105.184 482.07 104 482.614 103.008C483.19 102.016 483.958 101.216 484.918 100.608C485.878 100 486.998 99.552 488.278 99.264C489.558 98.976 490.902 98.832 492.31 98.832C492.758 98.832 493.222 98.864 493.702 98.928C494.182 98.96 494.63 99.024 495.046 99.12C495.494 99.184 495.878 99.248 496.198 99.312C496.518 99.376 496.742 99.424 496.87 99.456V98.208C496.87 97.472 496.79 96.752 496.63 96.048C496.47 95.312 496.182 94.672 495.766 94.128C495.35 93.552 494.774 93.104 494.038 92.784C493.334 92.432 492.406 92.256 491.254 92.256C489.782 92.256 488.486 92.368 487.366 92.592C486.278 92.784 485.462 92.992 484.918 93.216L484.39 89.52C484.966 89.264 485.926 89.024 487.27 88.8C488.614 88.544 490.07 88.416 491.638 88.416ZM512.829 89.04H522.285V92.784H512.829V104.304C512.829 105.552 512.925 106.592 513.117 107.424C513.309 108.224 513.597 108.864 513.981 109.344C514.365 109.792 514.845 110.112 515.421 110.304C515.997 110.496 516.669 110.592 517.437 110.592C518.781 110.592 519.853 110.448 520.653 110.16C521.485 109.84 522.061 109.616 522.381 109.488L523.245 113.184C522.797 113.408 522.013 113.68 520.893 114C519.773 114.352 518.493 114.528 517.053 114.528C515.357 114.528 513.949 114.32 512.829 113.904C511.741 113.456 510.861 112.8 510.189 111.936C509.517 111.072 509.037 110.016 508.749 108.768C508.493 107.488 508.365 106.016 508.365 104.352V82.08L512.829 81.312V89.04ZM526.104 101.568C526.104 99.36 526.424 97.44 527.064 95.808C527.704 94.144 528.552 92.768 529.608 91.68C530.664 90.592 531.88 89.776 533.256 89.232C534.632 88.688 536.04 88.416 537.48 88.416C540.84 88.416 543.416 89.472 545.208 91.584C547 93.664 547.896 96.848 547.896 101.136C547.896 101.328 547.896 101.584 547.896 101.904C547.896 102.192 547.88 102.464 547.848 102.72H530.76C530.952 105.312 531.704 107.28 533.016 108.624C534.328 109.968 536.376 110.64 539.16 110.64C540.728 110.64 542.04 110.512 543.096 110.256C544.184 109.968 545 109.696 545.544 109.44L546.168 113.184C545.624 113.472 544.664 113.776 543.288 114.096C541.944 114.416 540.408 114.576 538.68 114.576C536.504 114.576 534.616 114.256 533.016 113.616C531.448 112.944 530.152 112.032 529.128 110.88C528.104 109.728 527.336 108.368 526.824 106.8C526.344 105.2 526.104 103.456 526.104 101.568ZM543.24 99.12C543.272 97.104 542.76 95.456 541.704 94.176C540.68 92.864 539.256 92.208 537.432 92.208C536.408 92.208 535.496 92.416 534.696 92.832C533.928 93.216 533.272 93.728 532.728 94.368C532.184 95.008 531.752 95.744 531.432 96.576C531.144 97.408 530.952 98.256 530.856 99.12H543.24ZM573.797 89.04C572.549 93.712 571.077 98.192 569.381 102.48C567.717 106.768 566.101 110.608 564.533 114H560.501C558.933 110.608 557.301 106.768 555.605 102.48C553.941 98.192 552.485 93.712 551.237 89.04H556.037C556.421 90.608 556.869 92.288 557.381 94.08C557.925 95.84 558.485 97.6 559.061 99.36C559.669 101.088 560.277 102.768 560.885 104.4C561.493 106.032 562.069 107.488 562.613 108.768C563.157 107.488 563.733 106.032 564.341 104.4C564.949 102.768 565.541 101.088 566.117 99.36C566.725 97.6 567.285 95.84 567.797 94.08C568.341 92.288 568.805 90.608 569.189 89.04H573.797ZM576.354 101.568C576.354 99.36 576.674 97.44 577.314 95.808C577.954 94.144 578.802 92.768 579.858 91.68C580.914 90.592 582.13 89.776 583.506 89.232C584.882 88.688 586.29 88.416 587.73 88.416C591.09 88.416 593.666 89.472 595.458 91.584C597.25 93.664 598.146 96.848 598.146 101.136C598.146 101.328 598.146 101.584 598.146 101.904C598.146 102.192 598.13 102.464 598.098 102.72H581.01C581.202 105.312 581.954 107.28 583.266 108.624C584.578 109.968 586.626 110.64 589.41 110.64C590.978 110.64 592.29 110.512 593.346 110.256C594.434 109.968 595.25 109.696 595.794 109.44L596.418 113.184C595.874 113.472 594.914 113.776 593.538 114.096C592.194 114.416 590.658 114.576 588.93 114.576C586.754 114.576 584.866 114.256 583.266 113.616C581.698 112.944 580.402 112.032 579.378 110.88C578.354 109.728 577.586 108.368 577.074 106.8C576.594 105.2 576.354 103.456 576.354 101.568ZM593.49 99.12C593.522 97.104 593.01 95.456 591.954 94.176C590.93 92.864 589.506 92.208 587.682 92.208C586.658 92.208 585.746 92.416 584.946 92.832C584.178 93.216 583.522 93.728 582.978 94.368C582.434 95.008 582.002 95.744 581.682 96.576C581.394 97.408 581.202 98.256 581.106 99.12H593.49ZM613.775 88.512C614.159 88.512 614.591 88.544 615.071 88.608C615.583 88.64 616.079 88.704 616.559 88.8C617.039 88.864 617.471 88.944 617.855 89.04C618.271 89.104 618.575 89.168 618.767 89.232L617.999 93.12C617.647 92.992 617.055 92.848 616.223 92.688C615.423 92.496 614.383 92.4 613.103 92.4C612.271 92.4 611.439 92.496 610.607 92.688C609.807 92.848 609.279 92.96 609.023 93.024V114H604.559V90.096C605.615 89.712 606.927 89.36 608.495 89.04C610.063 88.688 611.823 88.512 613.775 88.512ZM631.256 118.656C631.608 118.816 632.056 118.96 632.6 119.088C633.176 119.248 633.736 119.328 634.28 119.328C636.04 119.328 637.416 118.928 638.408 118.128C639.4 117.36 640.296 116.096 641.096 114.336C639.08 110.496 637.192 106.432 635.432 102.144C633.704 97.824 632.264 93.456 631.112 89.04H635.912C636.264 90.48 636.68 92.032 637.16 93.696C637.672 95.36 638.232 97.072 638.84 98.832C639.448 100.592 640.104 102.352 640.808 104.112C641.512 105.872 642.248 107.568 643.016 109.2C644.232 105.84 645.288 102.512 646.184 99.216C647.08 95.92 647.928 92.528 648.728 89.04H653.336C652.184 93.744 650.904 98.272 649.496 102.624C648.088 106.944 646.568 110.992 644.936 114.768C644.296 116.208 643.624 117.44 642.92 118.464C642.248 119.52 641.496 120.384 640.664 121.056C639.832 121.728 638.888 122.224 637.832 122.544C636.808 122.864 635.64 123.024 634.328 123.024C633.976 123.024 633.608 122.992 633.224 122.928C632.84 122.896 632.456 122.832 632.072 122.736C631.72 122.672 631.384 122.592 631.064 122.496C630.776 122.4 630.568 122.32 630.44 122.256L631.256 118.656ZM680.075 101.52C680.075 103.504 679.787 105.296 679.211 106.896C678.635 108.496 677.819 109.872 676.763 111.024C675.739 112.176 674.507 113.072 673.067 113.712C671.627 114.32 670.059 114.624 668.363 114.624C666.667 114.624 665.099 114.32 663.659 113.712C662.219 113.072 660.971 112.176 659.915 111.024C658.891 109.872 658.091 108.496 657.515 106.896C656.939 105.296 656.651 103.504 656.651 101.52C656.651 99.568 656.939 97.792 657.515 96.192C658.091 94.56 658.891 93.168 659.915 92.016C660.971 90.864 662.219 89.984 663.659 89.376C665.099 88.736 666.667 88.416 668.363 88.416C670.059 88.416 671.627 88.736 673.067 89.376C674.507 89.984 675.739 90.864 676.763 92.016C677.819 93.168 678.635 94.56 679.211 96.192C679.787 97.792 680.075 99.568 680.075 101.52ZM675.419 101.52C675.419 98.704 674.779 96.48 673.499 94.848C672.251 93.184 670.539 92.352 668.363 92.352C666.187 92.352 664.459 93.184 663.179 94.848C661.931 96.48 661.307 98.704 661.307 101.52C661.307 104.336 661.931 106.576 663.179 108.24C664.459 109.872 666.187 110.688 668.363 110.688C670.539 110.688 672.251 109.872 673.499 108.24C674.779 106.576 675.419 104.336 675.419 101.52ZM706.228 113.28C705.204 113.536 703.844 113.808 702.148 114.096C700.484 114.384 698.548 114.528 696.34 114.528C694.42 114.528 692.804 114.256 691.492 113.712C690.18 113.136 689.124 112.336 688.324 111.312C687.524 110.288 686.948 109.088 686.596 107.712C686.244 106.304 686.068 104.752 686.068 103.056V89.04H690.532V102.096C690.532 105.136 691.012 107.312 691.972 108.624C692.932 109.936 694.548 110.592 696.82 110.592C697.3 110.592 697.796 110.576 698.308 110.544C698.82 110.512 699.3 110.48 699.748 110.448C700.196 110.384 700.596 110.336 700.948 110.304C701.332 110.24 701.604 110.176 701.764 110.112V89.04H706.228V113.28ZM725.028 114V77.52L729.492 76.752V89.52C730.324 89.2 731.204 88.96 732.132 88.8C733.092 88.608 734.036 88.512 734.964 88.512C736.948 88.512 738.596 88.8 739.908 89.376C741.22 89.92 742.26 90.704 743.028 91.728C743.828 92.72 744.388 93.92 744.708 95.328C745.028 96.736 745.188 98.288 745.188 99.984V114H740.724V100.944C740.724 99.408 740.612 98.096 740.388 97.008C740.196 95.92 739.86 95.04 739.38 94.368C738.9 93.696 738.26 93.216 737.46 92.928C736.66 92.608 735.668 92.448 734.484 92.448C734.004 92.448 733.508 92.48 732.996 92.544C732.484 92.608 731.988 92.688 731.508 92.784C731.06 92.848 730.644 92.928 730.26 93.024C729.908 93.12 729.652 93.2 729.492 93.264V114H725.028ZM760.897 110.784C761.953 110.784 762.881 110.768 763.681 110.736C764.513 110.672 765.201 110.576 765.745 110.448V103.008C765.425 102.848 764.897 102.72 764.161 102.624C763.457 102.496 762.593 102.432 761.569 102.432C760.897 102.432 760.177 102.48 759.409 102.576C758.673 102.672 757.985 102.88 757.345 103.2C756.737 103.488 756.225 103.904 755.809 104.448C755.393 104.96 755.185 105.648 755.185 106.512C755.185 108.112 755.697 109.232 756.721 109.872C757.745 110.48 759.137 110.784 760.897 110.784ZM760.513 88.416C762.305 88.416 763.809 88.656 765.025 89.136C766.273 89.584 767.265 90.24 768.001 91.104C768.769 91.936 769.313 92.944 769.633 94.128C769.953 95.28 770.113 96.56 770.113 97.968V113.568C769.729 113.632 769.185 113.728 768.481 113.856C767.809 113.952 767.041 114.048 766.177 114.144C765.313 114.24 764.369 114.32 763.345 114.384C762.353 114.48 761.361 114.528 760.369 114.528C758.961 114.528 757.665 114.384 756.481 114.096C755.297 113.808 754.273 113.36 753.409 112.752C752.545 112.112 751.873 111.28 751.393 110.256C750.913 109.232 750.673 108 750.673 106.56C750.673 105.184 750.945 104 751.489 103.008C752.065 102.016 752.833 101.216 753.793 100.608C754.753 100 755.873 99.552 757.153 99.264C758.433 98.976 759.777 98.832 761.185 98.832C761.633 98.832 762.097 98.864 762.577 98.928C763.057 98.96 763.505 99.024 763.921 99.12C764.369 99.184 764.753 99.248 765.073 99.312C765.393 99.376 765.617 99.424 765.745 99.456V98.208C765.745 97.472 765.665 96.752 765.505 96.048C765.345 95.312 765.057 94.672 764.641 94.128C764.225 93.552 763.649 93.104 762.913 92.784C762.209 92.432 761.281 92.256 760.129 92.256C758.657 92.256 757.361 92.368 756.241 92.592C755.153 92.784 754.337 92.992 753.793 93.216L753.265 89.52C753.841 89.264 754.801 89.024 756.145 88.8C757.489 88.544 758.945 88.416 760.513 88.416ZM796.312 89.04C795.064 93.712 793.592 98.192 791.896 102.48C790.232 106.768 788.616 110.608 787.048 114H783.016C781.448 110.608 779.816 106.768 778.12 102.48C776.456 98.192 775 93.712 773.752 89.04H778.552C778.936 90.608 779.384 92.288 779.896 94.08C780.44 95.84 781 97.6 781.576 99.36C782.184 101.088 782.792 102.768 783.4 104.4C784.008 106.032 784.584 107.488 785.128 108.768C785.672 107.488 786.248 106.032 786.856 104.4C787.464 102.768 788.056 101.088 788.632 99.36C789.24 97.6 789.8 95.84 790.312 94.08C790.856 92.288 791.32 90.608 791.704 89.04H796.312ZM798.87 101.568C798.87 99.36 799.19 97.44 799.83 95.808C800.47 94.144 801.318 92.768 802.374 91.68C803.43 90.592 804.646 89.776 806.022 89.232C807.398 88.688 808.806 88.416 810.246 88.416C813.606 88.416 816.182 89.472 817.974 91.584C819.766 93.664 820.662 96.848 820.662 101.136C820.662 101.328 820.662 101.584 820.662 101.904C820.662 102.192 820.646 102.464 820.614 102.72H803.526C803.718 105.312 804.47 107.28 805.782 108.624C807.094 109.968 809.142 110.64 811.926 110.64C813.494 110.64 814.806 110.512 815.862 110.256C816.95 109.968 817.766 109.696 818.31 109.44L818.934 113.184C818.39 113.472 817.43 113.776 816.054 114.096C814.71 114.416 813.174 114.576 811.446 114.576C809.27 114.576 807.382 114.256 805.782 113.616C804.214 112.944 802.918 112.032 801.894 110.88C800.87 109.728 800.102 108.368 799.59 106.8C799.11 105.2 798.87 103.456 798.87 101.568ZM816.006 99.12C816.038 97.104 815.526 95.456 814.47 94.176C813.446 92.864 812.022 92.208 810.198 92.208C809.174 92.208 808.262 92.416 807.462 92.832C806.694 93.216 806.038 93.728 805.494 94.368C804.95 95.008 804.518 95.744 804.198 96.576C803.91 97.408 803.718 98.256 803.622 99.12H816.006ZM847.928 76.752C849.24 76.752 850.36 76.848 851.288 77.04C852.248 77.232 852.92 77.408 853.304 77.568L852.488 81.408C852.104 81.216 851.56 81.04 850.856 80.88C850.152 80.688 849.288 80.592 848.264 80.592C846.184 80.592 844.728 81.168 843.896 82.32C843.064 83.44 842.648 84.96 842.648 86.88V89.04H852.248V92.784H842.648V114H838.184V86.784C838.184 83.584 838.968 81.12 840.536 79.392C842.104 77.632 844.568 76.752 847.928 76.752ZM878.731 101.52C878.731 103.504 878.443 105.296 877.867 106.896C877.291 108.496 876.475 109.872 875.419 111.024C874.395 112.176 873.163 113.072 871.723 113.712C870.283 114.32 868.715 114.624 867.019 114.624C865.323 114.624 863.755 114.32 862.315 113.712C860.875 113.072 859.627 112.176 858.571 111.024C857.547 109.872 856.747 108.496 856.171 106.896C855.595 105.296 855.307 103.504 855.307 101.52C855.307 99.568 855.595 97.792 856.171 96.192C856.747 94.56 857.547 93.168 858.571 92.016C859.627 90.864 860.875 89.984 862.315 89.376C863.755 88.736 865.323 88.416 867.019 88.416C868.715 88.416 870.283 88.736 871.723 89.376C873.163 89.984 874.395 90.864 875.419 92.016C876.475 93.168 877.291 94.56 877.867 96.192C878.443 97.792 878.731 99.568 878.731 101.52ZM874.075 101.52C874.075 98.704 873.435 96.48 872.155 94.848C870.907 93.184 869.195 92.352 867.019 92.352C864.843 92.352 863.115 93.184 861.835 94.848C860.587 96.48 859.963 98.704 859.963 101.52C859.963 104.336 860.587 106.576 861.835 108.24C863.115 109.872 864.843 110.688 867.019 110.688C869.195 110.688 870.907 109.872 872.155 108.24C873.435 106.576 874.075 104.336 874.075 101.52ZM894.228 88.512C894.612 88.512 895.044 88.544 895.524 88.608C896.036 88.64 896.532 88.704 897.012 88.8C897.492 88.864 897.924 88.944 898.308 89.04C898.724 89.104 899.028 89.168 899.22 89.232L898.452 93.12C898.1 92.992 897.508 92.848 896.676 92.688C895.876 92.496 894.836 92.4 893.556 92.4C892.724 92.4 891.892 92.496 891.06 92.688C890.26 92.848 889.732 92.96 889.476 93.024V114H885.012V90.096C886.068 89.712 887.38 89.36 888.948 89.04C890.516 88.688 892.276 88.512 894.228 88.512ZM304.24 169C303.344 166.696 302.384 164.072 301.36 161.128C300.368 158.152 299.456 155.064 298.624 151.864C297.792 155.064 296.88 158.152 295.888 161.128C294.896 164.072 293.952 166.696 293.056 169H289.168C287.696 165.704 286.256 161.944 284.848 157.72C283.44 153.496 282.112 148.936 280.864 144.04H285.664C285.984 145.544 286.368 147.176 286.816 148.936C287.264 150.696 287.728 152.456 288.208 154.216C288.72 155.976 289.248 157.672 289.792 159.304C290.336 160.936 290.848 162.36 291.328 163.576C291.872 162.072 292.4 160.488 292.912 158.824C293.456 157.128 293.968 155.432 294.448 153.736C294.928 152.008 295.376 150.328 295.792 148.696C296.24 147.032 296.624 145.48 296.944 144.04H300.64C300.928 145.48 301.28 147.032 301.696 148.696C302.112 150.328 302.56 152.008 303.04 153.736C303.52 155.432 304.016 157.128 304.528 158.824C305.072 160.488 305.616 162.072 306.16 163.576C306.64 162.36 307.136 160.936 307.648 159.304C308.192 157.672 308.72 155.976 309.232 154.216C309.744 152.456 310.224 150.696 310.672 148.936C311.12 147.176 311.504 145.544 311.824 144.04H316.432C315.184 148.936 313.856 153.496 312.448 157.72C311.04 161.944 309.6 165.704 308.128 169H304.24ZM321.153 169V132.52L325.617 131.752V144.52C326.449 144.2 327.329 143.96 328.257 143.8C329.217 143.608 330.161 143.512 331.089 143.512C333.073 143.512 334.721 143.8 336.033 144.376C337.345 144.92 338.385 145.704 339.153 146.728C339.953 147.72 340.513 148.92 340.833 150.328C341.153 151.736 341.312 153.288 341.312 154.984V169H336.849V155.944C336.849 154.408 336.737 153.096 336.513 152.008C336.321 150.92 335.985 150.04 335.505 149.368C335.025 148.696 334.385 148.216 333.585 147.928C332.785 147.608 331.793 147.448 330.609 147.448C330.129 147.448 329.633 147.48 329.121 147.544C328.609 147.608 328.113 147.688 327.633 147.784C327.185 147.848 326.769 147.928 326.385 148.024C326.033 148.12 325.777 148.2 325.617 148.264V169H321.153ZM357.022 165.784C358.078 165.784 359.006 165.768 359.806 165.736C360.638 165.672 361.326 165.576 361.87 165.448V158.008C361.55 157.848 361.022 157.72 360.286 157.624C359.582 157.496 358.718 157.432 357.694 157.432C357.022 157.432 356.302 157.48 355.534 157.576C354.798 157.672 354.11 157.88 353.47 158.2C352.862 158.488 352.35 158.904 351.934 159.448C351.518 159.96 351.31 160.648 351.31 161.512C351.31 163.112 351.822 164.232 352.846 164.872C353.87 165.48 355.262 165.784 357.022 165.784ZM356.638 143.416C358.43 143.416 359.934 143.656 361.15 144.136C362.398 144.584 363.39 145.24 364.126 146.104C364.894 146.936 365.438 147.944 365.758 149.128C366.078 150.28 366.238 151.56 366.238 152.968V168.568C365.854 168.632 365.31 168.728 364.606 168.856C363.934 168.952 363.166 169.048 362.302 169.144C361.438 169.24 360.494 169.32 359.47 169.384C358.478 169.48 357.486 169.528 356.494 169.528C355.086 169.528 353.79 169.384 352.606 169.096C351.422 168.808 350.398 168.36 349.534 167.752C348.67 167.112 347.998 166.28 347.518 165.256C347.038 164.232 346.798 163 346.798 161.56C346.798 160.184 347.07 159 347.614 158.008C348.19 157.016 348.958 156.216 349.918 155.608C350.878 155 351.998 154.552 353.278 154.264C354.558 153.976 355.902 153.832 357.31 153.832C357.758 153.832 358.222 153.864 358.702 153.928C359.182 153.96 359.63 154.024 360.046 154.12C360.494 154.184 360.878 154.248 361.198 154.312C361.518 154.376 361.742 154.424 361.87 154.456V153.208C361.87 152.472 361.79 151.752 361.63 151.048C361.47 150.312 361.182 149.672 360.766 149.128C360.35 148.552 359.774 148.104 359.038 147.784C358.334 147.432 357.406 147.256 356.254 147.256C354.782 147.256 353.486 147.368 352.366 147.592C351.278 147.784 350.462 147.992 349.918 148.216L349.39 144.52C349.966 144.264 350.926 144.024 352.27 143.8C353.614 143.544 355.07 143.416 356.638 143.416ZM377.829 144.04H387.285V147.784H377.829V159.304C377.829 160.552 377.925 161.592 378.117 162.424C378.309 163.224 378.597 163.864 378.981 164.344C379.365 164.792 379.845 165.112 380.421 165.304C380.997 165.496 381.669 165.592 382.437 165.592C383.781 165.592 384.853 165.448 385.653 165.16C386.485 164.84 387.061 164.616 387.381 164.488L388.245 168.184C387.797 168.408 387.013 168.68 385.893 169C384.773 169.352 383.493 169.528 382.053 169.528C380.357 169.528 378.949 169.32 377.829 168.904C376.741 168.456 375.861 167.8 375.189 166.936C374.517 166.072 374.037 165.016 373.749 163.768C373.493 162.488 373.365 161.016 373.365 159.352V137.08L377.829 136.312V144.04ZM391.104 156.568C391.104 154.36 391.424 152.44 392.064 150.808C392.704 149.144 393.552 147.768 394.608 146.68C395.664 145.592 396.88 144.776 398.256 144.232C399.632 143.688 401.04 143.416 402.48 143.416C405.84 143.416 408.416 144.472 410.208 146.584C412 148.664 412.896 151.848 412.896 156.136C412.896 156.328 412.896 156.584 412.896 156.904C412.896 157.192 412.88 157.464 412.848 157.72H395.76C395.952 160.312 396.704 162.28 398.016 163.624C399.328 164.968 401.376 165.64 404.16 165.64C405.728 165.64 407.04 165.512 408.096 165.256C409.184 164.968 410 164.696 410.544 164.44L411.168 168.184C410.624 168.472 409.664 168.776 408.288 169.096C406.944 169.416 405.408 169.576 403.68 169.576C401.504 169.576 399.616 169.256 398.016 168.616C396.448 167.944 395.152 167.032 394.128 165.88C393.104 164.728 392.336 163.368 391.824 161.8C391.344 160.2 391.104 158.456 391.104 156.568ZM408.24 154.12C408.272 152.104 407.76 150.456 406.704 149.176C405.68 147.864 404.256 147.208 402.432 147.208C401.408 147.208 400.496 147.416 399.696 147.832C398.928 148.216 398.272 148.728 397.728 149.368C397.184 150.008 396.752 150.744 396.432 151.576C396.144 152.408 395.952 153.256 395.856 154.12H408.24ZM438.797 144.04C437.549 148.712 436.077 153.192 434.381 157.48C432.717 161.768 431.101 165.608 429.533 169H425.501C423.933 165.608 422.301 161.768 420.605 157.48C418.941 153.192 417.485 148.712 416.237 144.04H421.037C421.421 145.608 421.869 147.288 422.381 149.08C422.925 150.84 423.485 152.6 424.061 154.36C424.669 156.088 425.277 157.768 425.885 159.4C426.493 161.032 427.069 162.488 427.613 163.768C428.157 162.488 428.733 161.032 429.341 159.4C429.949 157.768 430.541 156.088 431.117 154.36C431.725 152.6 432.285 150.84 432.797 149.08C433.341 147.288 433.805 145.608 434.189 144.04H438.797ZM441.354 156.568C441.354 154.36 441.674 152.44 442.314 150.808C442.954 149.144 443.802 147.768 444.858 146.68C445.914 145.592 447.13 144.776 448.506 144.232C449.882 143.688 451.29 143.416 452.73 143.416C456.09 143.416 458.666 144.472 460.458 146.584C462.25 148.664 463.146 151.848 463.146 156.136C463.146 156.328 463.146 156.584 463.146 156.904C463.146 157.192 463.13 157.464 463.098 157.72H446.01C446.202 160.312 446.954 162.28 448.266 163.624C449.578 164.968 451.626 165.64 454.41 165.64C455.978 165.64 457.29 165.512 458.346 165.256C459.434 164.968 460.25 164.696 460.794 164.44L461.418 168.184C460.874 168.472 459.914 168.776 458.538 169.096C457.194 169.416 455.658 169.576 453.93 169.576C451.754 169.576 449.866 169.256 448.266 168.616C446.698 167.944 445.402 167.032 444.378 165.88C443.354 164.728 442.586 163.368 442.074 161.8C441.594 160.2 441.354 158.456 441.354 156.568ZM458.49 154.12C458.522 152.104 458.01 150.456 456.954 149.176C455.93 147.864 454.506 147.208 452.682 147.208C451.658 147.208 450.746 147.416 449.946 147.832C449.178 148.216 448.522 148.728 447.978 149.368C447.434 150.008 447.002 150.744 446.682 151.576C446.394 152.408 446.202 153.256 446.106 154.12H458.49ZM478.775 143.512C479.159 143.512 479.591 143.544 480.071 143.608C480.583 143.64 481.079 143.704 481.559 143.8C482.039 143.864 482.471 143.944 482.855 144.04C483.271 144.104 483.575 144.168 483.767 144.232L482.999 148.12C482.647 147.992 482.055 147.848 481.223 147.688C480.423 147.496 479.383 147.4 478.103 147.4C477.271 147.4 476.439 147.496 475.607 147.688C474.807 147.848 474.279 147.96 474.023 148.024V169H469.559V145.096C470.615 144.712 471.927 144.36 473.495 144.04C475.063 143.688 476.823 143.512 478.775 143.512ZM504.992 165.784C506.816 165.784 508.16 165.544 509.024 165.064C509.92 164.584 510.368 163.816 510.368 162.76C510.368 161.672 509.936 160.808 509.072 160.168C508.208 159.528 506.784 158.808 504.8 158.008C503.84 157.624 502.912 157.24 502.016 156.856C501.152 156.44 500.4 155.96 499.76 155.416C499.12 154.872 498.608 154.216 498.224 153.448C497.84 152.68 497.648 151.736 497.648 150.616C497.648 148.408 498.464 146.664 500.096 145.384C501.728 144.072 503.952 143.416 506.768 143.416C507.472 143.416 508.176 143.464 508.88 143.56C509.584 143.624 510.24 143.72 510.848 143.848C511.456 143.944 511.984 144.056 512.432 144.184C512.912 144.312 513.28 144.424 513.536 144.52L512.72 148.36C512.24 148.104 511.488 147.848 510.464 147.592C509.44 147.304 508.208 147.16 506.768 147.16C505.52 147.16 504.432 147.416 503.504 147.928C502.576 148.408 502.112 149.176 502.112 150.232C502.112 150.776 502.208 151.256 502.4 151.672C502.624 152.088 502.944 152.472 503.36 152.824C503.808 153.144 504.352 153.448 504.992 153.736C505.632 154.024 506.4 154.328 507.296 154.648C508.48 155.096 509.536 155.544 510.464 155.992C511.392 156.408 512.176 156.904 512.816 157.48C513.488 158.056 514 158.76 514.352 159.592C514.704 160.392 514.88 161.384 514.88 162.568C514.88 164.872 514.016 166.616 512.288 167.8C510.592 168.984 508.16 169.576 504.992 169.576C502.784 169.576 501.056 169.384 499.808 169C498.56 168.648 497.712 168.376 497.264 168.184L498.08 164.344C498.592 164.536 499.408 164.824 500.528 165.208C501.648 165.592 503.136 165.784 504.992 165.784ZM542.638 156.52C542.638 158.504 542.35 160.296 541.774 161.896C541.198 163.496 540.382 164.872 539.326 166.024C538.302 167.176 537.07 168.072 535.63 168.712C534.19 169.32 532.622 169.624 530.926 169.624C529.23 169.624 527.662 169.32 526.222 168.712C524.782 168.072 523.534 167.176 522.478 166.024C521.454 164.872 520.654 163.496 520.078 161.896C519.502 160.296 519.214 158.504 519.214 156.52C519.214 154.568 519.502 152.792 520.078 151.192C520.654 149.56 521.454 148.168 522.478 147.016C523.534 145.864 524.782 144.984 526.222 144.376C527.662 143.736 529.23 143.416 530.926 143.416C532.622 143.416 534.19 143.736 535.63 144.376C537.07 144.984 538.302 145.864 539.326 147.016C540.382 148.168 541.198 149.56 541.774 151.192C542.35 152.792 542.638 154.568 542.638 156.52ZM537.982 156.52C537.982 153.704 537.342 151.48 536.062 149.848C534.814 148.184 533.102 147.352 530.926 147.352C528.75 147.352 527.022 148.184 525.742 149.848C524.494 151.48 523.87 153.704 523.87 156.52C523.87 159.336 524.494 161.576 525.742 163.24C527.022 164.872 528.75 165.688 530.926 165.688C533.102 165.688 534.814 164.872 536.062 163.24C537.342 161.576 537.982 159.336 537.982 156.52ZM548.918 144.76C549.942 144.504 551.286 144.232 552.95 143.944C554.646 143.656 556.598 143.512 558.806 143.512C560.406 143.512 561.75 143.736 562.838 144.184C563.926 144.6 564.838 145.224 565.574 146.056C565.798 145.896 566.15 145.672 566.63 145.384C567.11 145.096 567.702 144.824 568.406 144.568C569.11 144.28 569.894 144.04 570.758 143.848C571.622 143.624 572.55 143.512 573.542 143.512C575.462 143.512 577.03 143.8 578.246 144.376C579.462 144.92 580.406 145.704 581.078 146.728C581.782 147.752 582.246 148.968 582.47 150.376C582.726 151.784 582.854 153.32 582.854 154.984V169H578.39V155.944C578.39 154.472 578.31 153.208 578.15 152.152C578.022 151.096 577.75 150.216 577.334 149.512C576.95 148.808 576.406 148.296 575.702 147.976C575.03 147.624 574.15 147.448 573.062 147.448C571.558 147.448 570.31 147.656 569.318 148.072C568.358 148.456 567.702 148.808 567.35 149.128C567.606 149.96 567.798 150.872 567.926 151.864C568.054 152.856 568.118 153.896 568.118 154.984V169H563.654V155.944C563.654 154.472 563.574 153.208 563.414 152.152C563.254 151.096 562.966 150.216 562.55 149.512C562.166 148.808 561.622 148.296 560.918 147.976C560.246 147.624 559.382 147.448 558.326 147.448C557.878 147.448 557.398 147.464 556.886 147.496C556.374 147.528 555.878 147.576 555.398 147.64C554.95 147.672 554.534 147.72 554.15 147.784C553.766 147.848 553.51 147.896 553.382 147.928V169H548.918V144.76ZM588.87 156.568C588.87 154.36 589.19 152.44 589.83 150.808C590.47 149.144 591.318 147.768 592.374 146.68C593.43 145.592 594.646 144.776 596.022 144.232C597.398 143.688 598.806 143.416 600.246 143.416C603.606 143.416 606.182 144.472 607.974 146.584C609.766 148.664 610.662 151.848 610.662 156.136C610.662 156.328 610.662 156.584 610.662 156.904C610.662 157.192 610.646 157.464 610.614 157.72H593.526C593.718 160.312 594.47 162.28 595.782 163.624C597.094 164.968 599.142 165.64 601.926 165.64C603.494 165.64 604.806 165.512 605.862 165.256C606.95 164.968 607.766 164.696 608.31 164.44L608.934 168.184C608.39 168.472 607.43 168.776 606.054 169.096C604.71 169.416 603.174 169.576 601.446 169.576C599.27 169.576 597.382 169.256 595.782 168.616C594.214 167.944 592.918 167.032 591.894 165.88C590.87 164.728 590.102 163.368 589.59 161.8C589.11 160.2 588.87 158.456 588.87 156.568ZM606.006 154.12C606.038 152.104 605.526 150.456 604.47 149.176C603.446 147.864 602.022 147.208 600.198 147.208C599.174 147.208 598.262 147.416 597.462 147.832C596.694 148.216 596.038 148.728 595.494 149.368C594.95 150.008 594.518 150.744 594.198 151.576C593.91 152.408 593.718 153.256 593.622 154.12H606.006ZM639.106 156.52C639.106 158.504 638.818 160.296 638.242 161.896C637.666 163.496 636.85 164.872 635.794 166.024C634.77 167.176 633.538 168.072 632.098 168.712C630.658 169.32 629.09 169.624 627.394 169.624C625.698 169.624 624.13 169.32 622.69 168.712C621.25 168.072 620.002 167.176 618.946 166.024C617.922 164.872 617.122 163.496 616.546 161.896C615.97 160.296 615.682 158.504 615.682 156.52C615.682 154.568 615.97 152.792 616.546 151.192C617.122 149.56 617.922 148.168 618.946 147.016C620.002 145.864 621.25 144.984 622.69 144.376C624.13 143.736 625.698 143.416 627.394 143.416C629.09 143.416 630.658 143.736 632.098 144.376C633.538 144.984 634.77 145.864 635.794 147.016C636.85 148.168 637.666 149.56 638.242 151.192C638.818 152.792 639.106 154.568 639.106 156.52ZM634.45 156.52C634.45 153.704 633.81 151.48 632.53 149.848C631.282 148.184 629.57 147.352 627.394 147.352C625.218 147.352 623.49 148.184 622.21 149.848C620.962 151.48 620.338 153.704 620.338 156.52C620.338 159.336 620.962 161.576 622.21 163.24C623.49 164.872 625.218 165.688 627.394 165.688C629.57 165.688 631.282 164.872 632.53 163.24C633.81 161.576 634.45 159.336 634.45 156.52ZM645.387 144.76C646.411 144.504 647.771 144.232 649.467 143.944C651.163 143.656 653.115 143.512 655.323 143.512C657.307 143.512 658.955 143.8 660.267 144.376C661.579 144.92 662.619 145.704 663.387 146.728C664.187 147.72 664.747 148.92 665.067 150.328C665.387 151.736 665.547 153.288 665.547 154.984V169H661.083V155.944C661.083 154.408 660.971 153.096 660.747 152.008C660.555 150.92 660.219 150.04 659.739 149.368C659.259 148.696 658.619 148.216 657.819 147.928C657.019 147.608 656.027 147.448 654.843 147.448C654.363 147.448 653.867 147.464 653.355 147.496C652.843 147.528 652.347 147.576 651.867 147.64C651.419 147.672 651.003 147.72 650.619 147.784C650.267 147.848 650.011 147.896 649.851 147.928V169H645.387V144.76ZM671.557 156.568C671.557 154.36 671.877 152.44 672.517 150.808C673.157 149.144 674.005 147.768 675.061 146.68C676.117 145.592 677.333 144.776 678.709 144.232C680.085 143.688 681.493 143.416 682.933 143.416C686.293 143.416 688.869 144.472 690.661 146.584C692.453 148.664 693.349 151.848 693.349 156.136C693.349 156.328 693.349 156.584 693.349 156.904C693.349 157.192 693.333 157.464 693.301 157.72H676.213C676.405 160.312 677.157 162.28 678.469 163.624C679.781 164.968 681.829 165.64 684.613 165.64C686.181 165.64 687.493 165.512 688.549 165.256C689.637 164.968 690.453 164.696 690.997 164.44L691.621 168.184C691.077 168.472 690.117 168.776 688.741 169.096C687.397 169.416 685.861 169.576 684.133 169.576C681.957 169.576 680.069 169.256 678.469 168.616C676.901 167.944 675.605 167.032 674.581 165.88C673.557 164.728 672.789 163.368 672.277 161.8C671.797 160.2 671.557 158.456 671.557 156.568ZM688.693 154.12C688.725 152.104 688.213 150.456 687.157 149.176C686.133 147.864 684.709 147.208 682.885 147.208C681.861 147.208 680.949 147.416 680.149 147.832C679.381 148.216 678.725 148.728 678.181 149.368C677.637 150.008 677.205 150.744 676.885 151.576C676.597 152.408 676.405 153.256 676.309 154.12H688.693ZM709.479 156.568C709.479 154.36 709.799 152.44 710.439 150.808C711.079 149.144 711.927 147.768 712.983 146.68C714.039 145.592 715.255 144.776 716.631 144.232C718.007 143.688 719.415 143.416 720.855 143.416C724.215 143.416 726.791 144.472 728.583 146.584C730.375 148.664 731.271 151.848 731.271 156.136C731.271 156.328 731.271 156.584 731.271 156.904C731.271 157.192 731.255 157.464 731.223 157.72H714.135C714.327 160.312 715.079 162.28 716.391 163.624C717.703 164.968 719.751 165.64 722.535 165.64C724.103 165.64 725.415 165.512 726.471 165.256C727.559 164.968 728.375 164.696 728.919 164.44L729.543 168.184C728.999 168.472 728.039 168.776 726.663 169.096C725.319 169.416 723.783 169.576 722.055 169.576C719.879 169.576 717.991 169.256 716.391 168.616C714.823 167.944 713.527 167.032 712.503 165.88C711.479 164.728 710.711 163.368 710.199 161.8C709.719 160.2 709.479 158.456 709.479 156.568ZM726.615 154.12C726.647 152.104 726.135 150.456 725.079 149.176C724.055 147.864 722.631 147.208 720.807 147.208C719.783 147.208 718.871 147.416 718.071 147.832C717.303 148.216 716.647 148.728 716.103 149.368C715.559 150.008 715.127 150.744 714.807 151.576C714.519 152.408 714.327 153.256 714.231 154.12H726.615ZM745.172 169.48C742.42 169.416 740.468 168.824 739.316 167.704C738.164 166.584 737.588 164.84 737.588 162.472V132.52L742.052 131.752V161.752C742.052 162.488 742.116 163.096 742.244 163.576C742.372 164.056 742.58 164.44 742.868 164.728C743.156 165.016 743.54 165.24 744.02 165.4C744.5 165.528 745.092 165.64 745.796 165.736L745.172 169.48ZM756.617 165.784C758.441 165.784 759.785 165.544 760.649 165.064C761.545 164.584 761.993 163.816 761.993 162.76C761.993 161.672 761.561 160.808 760.697 160.168C759.833 159.528 758.409 158.808 756.425 158.008C755.465 157.624 754.537 157.24 753.641 156.856C752.777 156.44 752.025 155.96 751.385 155.416C750.745 154.872 750.233 154.216 749.849 153.448C749.465 152.68 749.273 151.736 749.273 150.616C749.273 148.408 750.089 146.664 751.721 145.384C753.353 144.072 755.577 143.416 758.393 143.416C759.097 143.416 759.801 143.464 760.505 143.56C761.209 143.624 761.865 143.72 762.473 143.848C763.081 143.944 763.609 144.056 764.057 144.184C764.537 144.312 764.905 144.424 765.161 144.52L764.345 148.36C763.865 148.104 763.113 147.848 762.089 147.592C761.065 147.304 759.833 147.16 758.393 147.16C757.145 147.16 756.057 147.416 755.129 147.928C754.201 148.408 753.737 149.176 753.737 150.232C753.737 150.776 753.833 151.256 754.025 151.672C754.249 152.088 754.569 152.472 754.985 152.824C755.433 153.144 755.977 153.448 756.617 153.736C757.257 154.024 758.025 154.328 758.921 154.648C760.105 155.096 761.161 155.544 762.089 155.992C763.017 156.408 763.801 156.904 764.441 157.48C765.113 158.056 765.625 158.76 765.977 159.592C766.329 160.392 766.505 161.384 766.505 162.568C766.505 164.872 765.641 166.616 763.913 167.8C762.217 168.984 759.785 169.576 756.617 169.576C754.409 169.576 752.681 169.384 751.433 169C750.185 168.648 749.337 168.376 748.889 168.184L749.705 164.344C750.217 164.536 751.033 164.824 752.153 165.208C753.273 165.592 754.761 165.784 756.617 165.784ZM770.839 156.568C770.839 154.36 771.159 152.44 771.799 150.808C772.439 149.144 773.287 147.768 774.343 146.68C775.399 145.592 776.615 144.776 777.991 144.232C779.367 143.688 780.775 143.416 782.215 143.416C785.575 143.416 788.151 144.472 789.943 146.584C791.735 148.664 792.631 151.848 792.631 156.136C792.631 156.328 792.631 156.584 792.631 156.904C792.631 157.192 792.615 157.464 792.583 157.72H775.495C775.687 160.312 776.439 162.28 777.751 163.624C779.063 164.968 781.111 165.64 783.895 165.64C785.463 165.64 786.775 165.512 787.831 165.256C788.919 164.968 789.735 164.696 790.279 164.44L790.903 168.184C790.359 168.472 789.399 168.776 788.023 169.096C786.679 169.416 785.143 169.576 783.415 169.576C781.239 169.576 779.351 169.256 777.751 168.616C776.183 167.944 774.887 167.032 773.863 165.88C772.839 164.728 772.071 163.368 771.559 161.8C771.079 160.2 770.839 158.456 770.839 156.568ZM787.975 154.12C788.007 152.104 787.495 150.456 786.439 149.176C785.415 147.864 783.991 147.208 782.167 147.208C781.143 147.208 780.231 147.416 779.431 147.832C778.663 148.216 778.007 148.728 777.463 149.368C776.919 150.008 776.487 150.744 776.167 151.576C775.879 152.408 775.687 153.256 775.591 154.12H787.975ZM810.153 169V132.52L814.617 131.752V144.52C815.449 144.2 816.329 143.96 817.257 143.8C818.217 143.608 819.161 143.512 820.089 143.512C822.073 143.512 823.721 143.8 825.033 144.376C826.345 144.92 827.385 145.704 828.153 146.728C828.953 147.72 829.513 148.92 829.833 150.328C830.153 151.736 830.312 153.288 830.312 154.984V169H825.849V155.944C825.849 154.408 825.737 153.096 825.513 152.008C825.321 150.92 824.985 150.04 824.505 149.368C824.025 148.696 823.385 148.216 822.585 147.928C821.785 147.608 820.793 147.448 819.609 147.448C819.129 147.448 818.633 147.48 818.121 147.544C817.609 147.608 817.113 147.688 816.633 147.784C816.185 147.848 815.769 147.928 815.385 148.024C815.033 148.12 814.777 148.2 814.617 148.264V169H810.153ZM846.022 165.784C847.078 165.784 848.006 165.768 848.806 165.736C849.638 165.672 850.326 165.576 850.87 165.448V158.008C850.55 157.848 850.022 157.72 849.286 157.624C848.582 157.496 847.718 157.432 846.694 157.432C846.022 157.432 845.302 157.48 844.534 157.576C843.798 157.672 843.11 157.88 842.47 158.2C841.862 158.488 841.35 158.904 840.934 159.448C840.518 159.96 840.31 160.648 840.31 161.512C840.31 163.112 840.822 164.232 841.846 164.872C842.87 165.48 844.262 165.784 846.022 165.784ZM845.638 143.416C847.43 143.416 848.934 143.656 850.15 144.136C851.398 144.584 852.39 145.24 853.126 146.104C853.894 146.936 854.438 147.944 854.758 149.128C855.078 150.28 855.238 151.56 855.238 152.968V168.568C854.854 168.632 854.31 168.728 853.606 168.856C852.934 168.952 852.166 169.048 851.302 169.144C850.438 169.24 849.494 169.32 848.47 169.384C847.478 169.48 846.486 169.528 845.494 169.528C844.086 169.528 842.79 169.384 841.606 169.096C840.422 168.808 839.398 168.36 838.534 167.752C837.67 167.112 836.998 166.28 836.518 165.256C836.038 164.232 835.798 163 835.798 161.56C835.798 160.184 836.07 159 836.614 158.008C837.19 157.016 837.958 156.216 838.918 155.608C839.878 155 840.998 154.552 842.278 154.264C843.558 153.976 844.902 153.832 846.31 153.832C846.758 153.832 847.222 153.864 847.702 153.928C848.182 153.96 848.63 154.024 849.046 154.12C849.494 154.184 849.878 154.248 850.198 154.312C850.518 154.376 850.742 154.424 850.87 154.456V153.208C850.87 152.472 850.79 151.752 850.63 151.048C850.47 150.312 850.182 149.672 849.766 149.128C849.35 148.552 848.774 148.104 848.038 147.784C847.334 147.432 846.406 147.256 845.254 147.256C843.782 147.256 842.486 147.368 841.366 147.592C840.278 147.784 839.462 147.992 838.918 148.216L838.39 144.52C838.966 144.264 839.926 144.024 841.27 143.8C842.614 143.544 844.07 143.416 845.638 143.416ZM868.461 165.784C870.285 165.784 871.629 165.544 872.493 165.064C873.389 164.584 873.837 163.816 873.837 162.76C873.837 161.672 873.405 160.808 872.541 160.168C871.677 159.528 870.253 158.808 868.269 158.008C867.309 157.624 866.381 157.24 865.485 156.856C864.621 156.44 863.869 155.96 863.229 155.416C862.589 154.872 862.077 154.216 861.693 153.448C861.309 152.68 861.117 151.736 861.117 150.616C861.117 148.408 861.933 146.664 863.565 145.384C865.197 144.072 867.421 143.416 870.237 143.416C870.941 143.416 871.645 143.464 872.349 143.56C873.053 143.624 873.709 143.72 874.317 143.848C874.925 143.944 875.453 144.056 875.901 144.184C876.381 144.312 876.749 144.424 877.005 144.52L876.189 148.36C875.709 148.104 874.957 147.848 873.933 147.592C872.909 147.304 871.677 147.16 870.237 147.16C868.989 147.16 867.901 147.416 866.973 147.928C866.045 148.408 865.581 149.176 865.581 150.232C865.581 150.776 865.677 151.256 865.868 151.672C866.093 152.088 866.413 152.472 866.829 152.824C867.277 153.144 867.821 153.448 868.461 153.736C869.101 154.024 869.869 154.328 870.765 154.648C871.949 155.096 873.005 155.544 873.933 155.992C874.861 156.408 875.645 156.904 876.285 157.48C876.957 158.056 877.469 158.76 877.821 159.592C878.173 160.392 878.349 161.384 878.349 162.568C878.349 164.872 877.485 166.616 875.757 167.8C874.061 168.984 871.629 169.576 868.461 169.576C866.253 169.576 864.525 169.384 863.277 169C862.029 168.648 861.181 168.376 860.733 168.184L861.549 164.344C862.061 164.536 862.877 164.824 863.997 165.208C865.117 165.592 866.605 165.784 868.461 165.784ZM889.354 166.408C889.354 167.272 889.066 168.024 888.49 168.664C887.914 169.304 887.13 169.624 886.138 169.624C885.146 169.624 884.362 169.304 883.786 168.664C883.21 168.024 882.922 167.272 882.922 166.408C882.922 165.544 883.21 164.792 883.786 164.152C884.362 163.512 885.146 163.192 886.138 163.192C887.13 163.192 887.914 163.512 888.49 164.152C889.066 164.792 889.354 165.544 889.354 166.408Z" fill="black"/>
<rect x="10" y="10" width="1019" height="227" stroke="#50536E" stroke-width="20"/>
</svg>
