<svg width="1039" height="247" viewBox="0 0 1039 247" fill="none" xmlns="http://www.w3.org/2000/svg">
<rect x="10" y="10" width="1019" height="227" fill="white"/>
<path d="M320.352 80.736V84.768H309.888V114H305.232V84.768H294.768V80.736H320.352ZM332.275 88.512C332.659 88.512 333.091 88.544 333.571 88.608C334.083 88.64 334.579 88.704 335.059 88.8C335.539 88.864 335.971 88.944 336.355 89.04C336.771 89.104 337.075 89.168 337.267 89.232L336.499 93.12C336.147 92.992 335.555 92.848 334.723 92.688C333.923 92.496 332.883 92.4 331.603 92.4C330.771 92.4 329.939 92.496 329.107 92.688C328.307 92.848 327.779 92.96 327.523 93.024V114H323.059V90.096C324.115 89.712 325.427 89.36 326.995 89.04C328.563 88.688 330.323 88.512 332.275 88.512ZM350.022 110.784C351.078 110.784 352.006 110.768 352.806 110.736C353.638 110.672 354.326 110.576 354.87 110.448V103.008C354.55 102.848 354.022 102.72 353.286 102.624C352.582 102.496 351.718 102.432 350.694 102.432C350.022 102.432 349.302 102.48 348.534 102.576C347.798 102.672 347.11 102.88 346.47 103.2C345.862 103.488 345.35 103.904 344.934 104.448C344.518 104.96 344.31 105.648 344.31 106.512C344.31 108.112 344.822 109.232 345.846 109.872C346.87 110.48 348.262 110.784 350.022 110.784ZM349.638 88.416C351.43 88.416 352.934 88.656 354.15 89.136C355.398 89.584 356.39 90.24 357.126 91.104C357.894 91.936 358.438 92.944 358.758 94.128C359.078 95.28 359.238 96.56 359.238 97.968V113.568C358.854 113.632 358.31 113.728 357.606 113.856C356.934 113.952 356.166 114.048 355.302 114.144C354.438 114.24 353.494 114.32 352.47 114.384C351.478 114.48 350.486 114.528 349.494 114.528C348.086 114.528 346.79 114.384 345.606 114.096C344.422 113.808 343.398 113.36 342.534 112.752C341.67 112.112 340.998 111.28 340.518 110.256C340.038 109.232 339.798 108 339.798 106.56C339.798 105.184 340.07 104 340.614 103.008C341.19 102.016 341.958 101.216 342.918 100.608C343.878 100 344.998 99.552 346.278 99.264C347.558 98.976 348.902 98.832 350.31 98.832C350.758 98.832 351.222 98.864 351.702 98.928C352.182 98.96 352.63 99.024 353.046 99.12C353.494 99.184 353.878 99.248 354.198 99.312C354.518 99.376 354.742 99.424 354.87 99.456V98.208C354.87 97.472 354.79 96.752 354.63 96.048C354.47 95.312 354.182 94.672 353.766 94.128C353.35 93.552 352.774 93.104 352.038 92.784C351.334 92.432 350.406 92.256 349.254 92.256C347.782 92.256 346.486 92.368 345.366 92.592C344.278 92.784 343.462 92.992 342.918 93.216L342.39 89.52C342.966 89.264 343.926 89.024 345.27 88.8C346.614 88.544 348.07 88.416 349.638 88.416ZM382.781 94.32C382.237 93.872 381.453 93.44 380.429 93.024C379.405 92.608 378.285 92.4 377.069 92.4C375.789 92.4 374.685 92.64 373.757 93.12C372.861 93.568 372.125 94.208 371.549 95.04C370.973 95.84 370.557 96.8 370.301 97.92C370.045 99.04 369.917 100.24 369.917 101.52C369.917 104.432 370.637 106.688 372.077 108.288C373.517 109.856 375.437 110.64 377.837 110.64C379.053 110.64 380.061 110.592 380.861 110.496C381.693 110.368 382.333 110.24 382.781 110.112V94.32ZM382.781 77.52L387.245 76.752V113.28C386.221 113.568 384.909 113.856 383.309 114.144C381.709 114.432 379.869 114.576 377.789 114.576C375.869 114.576 374.141 114.272 372.605 113.664C371.069 113.056 369.757 112.192 368.669 111.072C367.581 109.952 366.733 108.592 366.125 106.992C365.549 105.36 365.261 103.536 365.261 101.52C365.261 99.6 365.501 97.84 365.98 96.24C366.493 94.64 367.229 93.264 368.189 92.112C369.149 90.96 370.317 90.064 371.693 89.424C373.101 88.784 374.701 88.464 376.493 88.464C377.933 88.464 379.197 88.656 380.285 89.04C381.405 89.424 382.237 89.792 382.781 90.144V77.52ZM393.526 101.568C393.526 99.36 393.846 97.44 394.486 95.808C395.126 94.144 395.974 92.768 397.03 91.68C398.086 90.592 399.302 89.776 400.678 89.232C402.054 88.688 403.462 88.416 404.902 88.416C408.262 88.416 410.838 89.472 412.63 91.584C414.422 93.664 415.318 96.848 415.318 101.136C415.318 101.328 415.318 101.584 415.318 101.904C415.318 102.192 415.302 102.464 415.27 102.72H398.182C398.374 105.312 399.126 107.28 400.438 108.624C401.75 109.968 403.798 110.64 406.582 110.64C408.15 110.64 409.462 110.512 410.518 110.256C411.606 109.968 412.422 109.696 412.966 109.44L413.59 113.184C413.046 113.472 412.086 113.776 410.71 114.096C409.366 114.416 407.83 114.576 406.102 114.576C403.926 114.576 402.038 114.256 400.438 113.616C398.87 112.944 397.574 112.032 396.55 110.88C395.526 109.728 394.758 108.368 394.246 106.8C393.766 105.2 393.526 103.456 393.526 101.568ZM410.662 99.12C410.694 97.104 410.182 95.456 409.126 94.176C408.102 92.864 406.678 92.208 404.854 92.208C403.83 92.208 402.918 92.416 402.118 92.832C401.35 93.216 400.694 93.728 400.15 94.368C399.606 95.008 399.174 95.744 398.854 96.576C398.566 97.408 398.374 98.256 398.278 99.12H410.662ZM453.24 114C452.344 111.696 451.384 109.072 450.36 106.128C449.368 103.152 448.456 100.064 447.624 96.864C446.792 100.064 445.88 103.152 444.888 106.128C443.896 109.072 442.952 111.696 442.056 114H438.168C436.696 110.704 435.256 106.944 433.848 102.72C432.44 98.496 431.112 93.936 429.864 89.04H434.664C434.984 90.544 435.368 92.176 435.816 93.936C436.264 95.696 436.728 97.456 437.208 99.216C437.72 100.976 438.248 102.672 438.792 104.304C439.336 105.936 439.848 107.36 440.328 108.576C440.872 107.072 441.4 105.488 441.912 103.824C442.456 102.128 442.968 100.432 443.448 98.736C443.928 97.008 444.376 95.328 444.792 93.696C445.24 92.032 445.624 90.48 445.944 89.04H449.64C449.928 90.48 450.28 92.032 450.696 93.696C451.112 95.328 451.56 97.008 452.04 98.736C452.52 100.432 453.016 102.128 453.528 103.824C454.072 105.488 454.616 107.072 455.16 108.576C455.64 107.36 456.136 105.936 456.648 104.304C457.192 102.672 457.72 100.976 458.232 99.216C458.744 97.456 459.224 95.696 459.672 93.936C460.12 92.176 460.504 90.544 460.824 89.04H465.432C464.184 93.936 462.856 98.496 461.448 102.72C460.04 106.944 458.6 110.704 457.128 114H453.24ZM470.153 114V77.52L474.617 76.752V89.52C475.449 89.2 476.329 88.96 477.257 88.8C478.217 88.608 479.161 88.512 480.089 88.512C482.073 88.512 483.721 88.8 485.033 89.376C486.345 89.92 487.385 90.704 488.153 91.728C488.953 92.72 489.513 93.92 489.833 95.328C490.153 96.736 490.312 98.288 490.312 99.984V114H485.849V100.944C485.849 99.408 485.737 98.096 485.513 97.008C485.321 95.92 484.985 95.04 484.505 94.368C484.025 93.696 483.385 93.216 482.585 92.928C481.785 92.608 480.793 92.448 479.609 92.448C479.129 92.448 478.633 92.48 478.121 92.544C477.609 92.608 477.113 92.688 476.633 92.784C476.185 92.848 475.769 92.928 475.385 93.024C475.033 93.12 474.777 93.2 474.617 93.264V114H470.153ZM506.022 110.784C507.078 110.784 508.006 110.768 508.806 110.736C509.638 110.672 510.326 110.576 510.87 110.448V103.008C510.55 102.848 510.022 102.72 509.286 102.624C508.582 102.496 507.718 102.432 506.694 102.432C506.022 102.432 505.302 102.48 504.534 102.576C503.798 102.672 503.11 102.88 502.47 103.2C501.862 103.488 501.35 103.904 500.934 104.448C500.518 104.96 500.31 105.648 500.31 106.512C500.31 108.112 500.822 109.232 501.846 109.872C502.87 110.48 504.262 110.784 506.022 110.784ZM505.638 88.416C507.43 88.416 508.934 88.656 510.15 89.136C511.398 89.584 512.39 90.24 513.126 91.104C513.894 91.936 514.438 92.944 514.758 94.128C515.078 95.28 515.238 96.56 515.238 97.968V113.568C514.854 113.632 514.31 113.728 513.606 113.856C512.934 113.952 512.166 114.048 511.302 114.144C510.438 114.24 509.494 114.32 508.47 114.384C507.478 114.48 506.486 114.528 505.494 114.528C504.086 114.528 502.79 114.384 501.606 114.096C500.422 113.808 499.398 113.36 498.534 112.752C497.67 112.112 496.998 111.28 496.518 110.256C496.038 109.232 495.798 108 495.798 106.56C495.798 105.184 496.07 104 496.614 103.008C497.19 102.016 497.958 101.216 498.918 100.608C499.878 100 500.998 99.552 502.278 99.264C503.558 98.976 504.902 98.832 506.31 98.832C506.758 98.832 507.222 98.864 507.702 98.928C508.182 98.96 508.63 99.024 509.046 99.12C509.494 99.184 509.878 99.248 510.198 99.312C510.518 99.376 510.742 99.424 510.87 99.456V98.208C510.87 97.472 510.79 96.752 510.63 96.048C510.47 95.312 510.182 94.672 509.766 94.128C509.35 93.552 508.774 93.104 508.038 92.784C507.334 92.432 506.406 92.256 505.254 92.256C503.782 92.256 502.486 92.368 501.366 92.592C500.278 92.784 499.462 92.992 498.918 93.216L498.39 89.52C498.966 89.264 499.926 89.024 501.27 88.8C502.614 88.544 504.07 88.416 505.638 88.416ZM526.829 89.04H536.285V92.784H526.829V104.304C526.829 105.552 526.925 106.592 527.117 107.424C527.309 108.224 527.597 108.864 527.981 109.344C528.365 109.792 528.845 110.112 529.421 110.304C529.997 110.496 530.669 110.592 531.437 110.592C532.781 110.592 533.853 110.448 534.653 110.16C535.485 109.84 536.061 109.616 536.381 109.488L537.245 113.184C536.797 113.408 536.013 113.68 534.893 114C533.773 114.352 532.493 114.528 531.053 114.528C529.357 114.528 527.949 114.32 526.829 113.904C525.741 113.456 524.861 112.8 524.189 111.936C523.517 111.072 523.037 110.016 522.749 108.768C522.493 107.488 522.365 106.016 522.365 104.352V82.08L526.829 81.312V89.04ZM540.104 101.568C540.104 99.36 540.424 97.44 541.064 95.808C541.704 94.144 542.552 92.768 543.608 91.68C544.664 90.592 545.88 89.776 547.256 89.232C548.632 88.688 550.04 88.416 551.48 88.416C554.84 88.416 557.416 89.472 559.208 91.584C561 93.664 561.896 96.848 561.896 101.136C561.896 101.328 561.896 101.584 561.896 101.904C561.896 102.192 561.88 102.464 561.848 102.72H544.76C544.952 105.312 545.704 107.28 547.016 108.624C548.328 109.968 550.376 110.64 553.16 110.64C554.728 110.64 556.04 110.512 557.096 110.256C558.184 109.968 559 109.696 559.544 109.44L560.168 113.184C559.624 113.472 558.664 113.776 557.288 114.096C555.944 114.416 554.408 114.576 552.68 114.576C550.504 114.576 548.616 114.256 547.016 113.616C545.448 112.944 544.152 112.032 543.128 110.88C542.104 109.728 541.336 108.368 540.824 106.8C540.344 105.2 540.104 103.456 540.104 101.568ZM557.24 99.12C557.272 97.104 556.76 95.456 555.704 94.176C554.68 92.864 553.256 92.208 551.432 92.208C550.408 92.208 549.496 92.416 548.696 92.832C547.928 93.216 547.272 93.728 546.728 94.368C546.184 95.008 545.752 95.744 545.432 96.576C545.144 97.408 544.952 98.256 544.856 99.12H557.24ZM587.797 89.04C586.549 93.712 585.077 98.192 583.381 102.48C581.717 106.768 580.101 110.608 578.533 114H574.501C572.933 110.608 571.301 106.768 569.605 102.48C567.941 98.192 566.485 93.712 565.237 89.04H570.037C570.421 90.608 570.869 92.288 571.381 94.08C571.925 95.84 572.485 97.6 573.061 99.36C573.669 101.088 574.277 102.768 574.885 104.4C575.493 106.032 576.069 107.488 576.613 108.768C577.157 107.488 577.733 106.032 578.341 104.4C578.949 102.768 579.541 101.088 580.117 99.36C580.725 97.6 581.285 95.84 581.797 94.08C582.341 92.288 582.805 90.608 583.189 89.04H587.797ZM590.354 101.568C590.354 99.36 590.674 97.44 591.314 95.808C591.954 94.144 592.802 92.768 593.858 91.68C594.914 90.592 596.13 89.776 597.506 89.232C598.882 88.688 600.29 88.416 601.73 88.416C605.09 88.416 607.666 89.472 609.458 91.584C611.25 93.664 612.146 96.848 612.146 101.136C612.146 101.328 612.146 101.584 612.146 101.904C612.146 102.192 612.13 102.464 612.098 102.72H595.01C595.202 105.312 595.954 107.28 597.266 108.624C598.578 109.968 600.626 110.64 603.41 110.64C604.978 110.64 606.29 110.512 607.346 110.256C608.434 109.968 609.25 109.696 609.794 109.44L610.418 113.184C609.874 113.472 608.914 113.776 607.538 114.096C606.194 114.416 604.658 114.576 602.93 114.576C600.754 114.576 598.866 114.256 597.266 113.616C595.698 112.944 594.402 112.032 593.378 110.88C592.354 109.728 591.586 108.368 591.074 106.8C590.594 105.2 590.354 103.456 590.354 101.568ZM607.49 99.12C607.522 97.104 607.01 95.456 605.954 94.176C604.93 92.864 603.506 92.208 601.682 92.208C600.658 92.208 599.746 92.416 598.946 92.832C598.178 93.216 597.522 93.728 596.978 94.368C596.434 95.008 596.002 95.744 595.682 96.576C595.394 97.408 595.202 98.256 595.106 99.12H607.49ZM627.775 88.512C628.159 88.512 628.591 88.544 629.071 88.608C629.583 88.64 630.079 88.704 630.559 88.8C631.039 88.864 631.471 88.944 631.855 89.04C632.271 89.104 632.575 89.168 632.767 89.232L631.999 93.12C631.647 92.992 631.055 92.848 630.223 92.688C629.423 92.496 628.383 92.4 627.103 92.4C626.271 92.4 625.439 92.496 624.607 92.688C623.807 92.848 623.279 92.96 623.023 93.024V114H618.559V90.096C619.615 89.712 620.927 89.36 622.495 89.04C624.063 88.688 625.823 88.512 627.775 88.512ZM645.256 118.656C645.608 118.816 646.056 118.96 646.6 119.088C647.176 119.248 647.736 119.328 648.28 119.328C650.04 119.328 651.416 118.928 652.408 118.128C653.4 117.36 654.296 116.096 655.096 114.336C653.08 110.496 651.192 106.432 649.432 102.144C647.704 97.824 646.264 93.456 645.112 89.04H649.912C650.264 90.48 650.68 92.032 651.16 93.696C651.672 95.36 652.232 97.072 652.84 98.832C653.448 100.592 654.104 102.352 654.808 104.112C655.512 105.872 656.248 107.568 657.016 109.2C658.232 105.84 659.288 102.512 660.184 99.216C661.08 95.92 661.928 92.528 662.728 89.04H667.336C666.184 93.744 664.904 98.272 663.496 102.624C662.088 106.944 660.568 110.992 658.936 114.768C658.296 116.208 657.624 117.44 656.92 118.464C656.248 119.52 655.496 120.384 654.664 121.056C653.832 121.728 652.888 122.224 651.832 122.544C650.808 122.864 649.64 123.024 648.328 123.024C647.976 123.024 647.608 122.992 647.224 122.928C646.84 122.896 646.456 122.832 646.072 122.736C645.72 122.672 645.384 122.592 645.064 122.496C644.776 122.4 644.568 122.32 644.44 122.256L645.256 118.656ZM694.075 101.52C694.075 103.504 693.787 105.296 693.211 106.896C692.635 108.496 691.819 109.872 690.763 111.024C689.739 112.176 688.507 113.072 687.067 113.712C685.627 114.32 684.059 114.624 682.363 114.624C680.667 114.624 679.099 114.32 677.659 113.712C676.219 113.072 674.971 112.176 673.915 111.024C672.891 109.872 672.091 108.496 671.515 106.896C670.939 105.296 670.651 103.504 670.651 101.52C670.651 99.568 670.939 97.792 671.515 96.192C672.091 94.56 672.891 93.168 673.915 92.016C674.971 90.864 676.219 89.984 677.659 89.376C679.099 88.736 680.667 88.416 682.363 88.416C684.059 88.416 685.627 88.736 687.067 89.376C688.507 89.984 689.739 90.864 690.763 92.016C691.819 93.168 692.635 94.56 693.211 96.192C693.787 97.792 694.075 99.568 694.075 101.52ZM689.419 101.52C689.419 98.704 688.779 96.48 687.499 94.848C686.251 93.184 684.539 92.352 682.363 92.352C680.187 92.352 678.459 93.184 677.179 94.848C675.931 96.48 675.307 98.704 675.307 101.52C675.307 104.336 675.931 106.576 677.179 108.24C678.459 109.872 680.187 110.688 682.363 110.688C684.539 110.688 686.251 109.872 687.499 108.24C688.779 106.576 689.419 104.336 689.419 101.52ZM720.228 113.28C719.204 113.536 717.844 113.808 716.148 114.096C714.484 114.384 712.548 114.528 710.34 114.528C708.42 114.528 706.804 114.256 705.492 113.712C704.18 113.136 703.124 112.336 702.324 111.312C701.524 110.288 700.948 109.088 700.596 107.712C700.244 106.304 700.068 104.752 700.068 103.056V89.04H704.532V102.096C704.532 105.136 705.012 107.312 705.972 108.624C706.932 109.936 708.548 110.592 710.82 110.592C711.3 110.592 711.796 110.576 712.308 110.544C712.82 110.512 713.3 110.48 713.748 110.448C714.196 110.384 714.596 110.336 714.948 110.304C715.332 110.24 715.604 110.176 715.764 110.112V89.04H720.228V113.28ZM739.028 114V77.52L743.492 76.752V89.52C744.324 89.2 745.204 88.96 746.132 88.8C747.092 88.608 748.036 88.512 748.964 88.512C750.948 88.512 752.596 88.8 753.908 89.376C755.22 89.92 756.26 90.704 757.028 91.728C757.828 92.72 758.388 93.92 758.708 95.328C759.028 96.736 759.188 98.288 759.188 99.984V114H754.724V100.944C754.724 99.408 754.612 98.096 754.388 97.008C754.196 95.92 753.86 95.04 753.38 94.368C752.9 93.696 752.26 93.216 751.46 92.928C750.66 92.608 749.668 92.448 748.484 92.448C748.004 92.448 747.508 92.48 746.996 92.544C746.484 92.608 745.988 92.688 745.508 92.784C745.06 92.848 744.644 92.928 744.26 93.024C743.908 93.12 743.652 93.2 743.492 93.264V114H739.028ZM774.897 110.784C775.953 110.784 776.881 110.768 777.681 110.736C778.513 110.672 779.201 110.576 779.745 110.448V103.008C779.425 102.848 778.897 102.72 778.161 102.624C777.457 102.496 776.593 102.432 775.569 102.432C774.897 102.432 774.177 102.48 773.409 102.576C772.673 102.672 771.985 102.88 771.345 103.2C770.737 103.488 770.225 103.904 769.809 104.448C769.393 104.96 769.185 105.648 769.185 106.512C769.185 108.112 769.697 109.232 770.721 109.872C771.745 110.48 773.137 110.784 774.897 110.784ZM774.513 88.416C776.305 88.416 777.809 88.656 779.025 89.136C780.273 89.584 781.265 90.24 782.001 91.104C782.769 91.936 783.313 92.944 783.633 94.128C783.953 95.28 784.113 96.56 784.113 97.968V113.568C783.729 113.632 783.185 113.728 782.481 113.856C781.809 113.952 781.041 114.048 780.177 114.144C779.313 114.24 778.369 114.32 777.345 114.384C776.353 114.48 775.361 114.528 774.369 114.528C772.961 114.528 771.665 114.384 770.481 114.096C769.297 113.808 768.273 113.36 767.409 112.752C766.545 112.112 765.873 111.28 765.393 110.256C764.913 109.232 764.673 108 764.673 106.56C764.673 105.184 764.945 104 765.489 103.008C766.065 102.016 766.833 101.216 767.793 100.608C768.753 100 769.873 99.552 771.153 99.264C772.433 98.976 773.777 98.832 775.185 98.832C775.633 98.832 776.097 98.864 776.577 98.928C777.057 98.96 777.505 99.024 777.921 99.12C778.369 99.184 778.753 99.248 779.073 99.312C779.393 99.376 779.617 99.424 779.745 99.456V98.208C779.745 97.472 779.665 96.752 779.505 96.048C779.345 95.312 779.057 94.672 778.641 94.128C778.225 93.552 777.649 93.104 776.913 92.784C776.209 92.432 775.281 92.256 774.129 92.256C772.657 92.256 771.361 92.368 770.241 92.592C769.153 92.784 768.337 92.992 767.793 93.216L767.265 89.52C767.841 89.264 768.801 89.024 770.145 88.8C771.489 88.544 772.945 88.416 774.513 88.416ZM810.312 89.04C809.064 93.712 807.592 98.192 805.896 102.48C804.232 106.768 802.616 110.608 801.048 114H797.016C795.448 110.608 793.816 106.768 792.12 102.48C790.456 98.192 789 93.712 787.752 89.04H792.552C792.936 90.608 793.384 92.288 793.896 94.08C794.44 95.84 795 97.6 795.576 99.36C796.184 101.088 796.792 102.768 797.4 104.4C798.008 106.032 798.584 107.488 799.128 108.768C799.672 107.488 800.248 106.032 800.856 104.4C801.464 102.768 802.056 101.088 802.632 99.36C803.24 97.6 803.8 95.84 804.312 94.08C804.856 92.288 805.32 90.608 805.704 89.04H810.312ZM812.87 101.568C812.87 99.36 813.19 97.44 813.83 95.808C814.47 94.144 815.318 92.768 816.374 91.68C817.43 90.592 818.646 89.776 820.022 89.232C821.398 88.688 822.806 88.416 824.246 88.416C827.606 88.416 830.182 89.472 831.974 91.584C833.766 93.664 834.662 96.848 834.662 101.136C834.662 101.328 834.662 101.584 834.662 101.904C834.662 102.192 834.646 102.464 834.614 102.72H817.526C817.718 105.312 818.47 107.28 819.782 108.624C821.094 109.968 823.142 110.64 825.926 110.64C827.494 110.64 828.806 110.512 829.862 110.256C830.95 109.968 831.766 109.696 832.31 109.44L832.934 113.184C832.39 113.472 831.43 113.776 830.054 114.096C828.71 114.416 827.174 114.576 825.446 114.576C823.27 114.576 821.382 114.256 819.782 113.616C818.214 112.944 816.918 112.032 815.894 110.88C814.87 109.728 814.102 108.368 813.59 106.8C813.11 105.2 812.87 103.456 812.87 101.568ZM830.006 99.12C830.038 97.104 829.526 95.456 828.47 94.176C827.446 92.864 826.022 92.208 824.198 92.208C823.174 92.208 822.262 92.416 821.462 92.832C820.694 93.216 820.038 93.728 819.494 94.368C818.95 95.008 818.518 95.744 818.198 96.576C817.91 97.408 817.718 98.256 817.622 99.12H830.006ZM861.928 76.752C863.24 76.752 864.36 76.848 865.288 77.04C866.248 77.232 866.92 77.408 867.304 77.568L866.488 81.408C866.104 81.216 865.56 81.04 864.856 80.88C864.152 80.688 863.288 80.592 862.264 80.592C860.184 80.592 858.728 81.168 857.896 82.32C857.064 83.44 856.648 84.96 856.648 86.88V89.04H866.248V92.784H856.648V114H852.184V86.784C852.184 83.584 852.968 81.12 854.536 79.392C856.104 77.632 858.568 76.752 861.928 76.752ZM892.731 101.52C892.731 103.504 892.443 105.296 891.867 106.896C891.291 108.496 890.475 109.872 889.419 111.024C888.395 112.176 887.163 113.072 885.723 113.712C884.283 114.32 882.715 114.624 881.019 114.624C879.323 114.624 877.755 114.32 876.315 113.712C874.875 113.072 873.627 112.176 872.571 111.024C871.547 109.872 870.747 108.496 870.171 106.896C869.595 105.296 869.307 103.504 869.307 101.52C869.307 99.568 869.595 97.792 870.171 96.192C870.747 94.56 871.547 93.168 872.571 92.016C873.627 90.864 874.875 89.984 876.315 89.376C877.755 88.736 879.323 88.416 881.019 88.416C882.715 88.416 884.283 88.736 885.723 89.376C887.163 89.984 888.395 90.864 889.419 92.016C890.475 93.168 891.291 94.56 891.867 96.192C892.443 97.792 892.731 99.568 892.731 101.52ZM888.075 101.52C888.075 98.704 887.435 96.48 886.155 94.848C884.907 93.184 883.195 92.352 881.019 92.352C878.843 92.352 877.115 93.184 875.835 94.848C874.587 96.48 873.963 98.704 873.963 101.52C873.963 104.336 874.587 106.576 875.835 108.24C877.115 109.872 878.843 110.688 881.019 110.688C883.195 110.688 884.907 109.872 886.155 108.24C887.435 106.576 888.075 104.336 888.075 101.52ZM908.228 88.512C908.612 88.512 909.044 88.544 909.524 88.608C910.036 88.64 910.532 88.704 911.012 88.8C911.492 88.864 911.924 88.944 912.308 89.04C912.724 89.104 913.028 89.168 913.22 89.232L912.452 93.12C912.1 92.992 911.508 92.848 910.676 92.688C909.876 92.496 908.836 92.4 907.556 92.4C906.724 92.4 905.892 92.496 905.06 92.688C904.26 92.848 903.732 92.96 903.476 93.024V114H899.012V90.096C900.068 89.712 901.38 89.36 902.948 89.04C904.516 88.688 906.276 88.512 908.228 88.512ZM318.24 169C317.344 166.696 316.384 164.072 315.36 161.128C314.368 158.152 313.456 155.064 312.624 151.864C311.792 155.064 310.88 158.152 309.888 161.128C308.896 164.072 307.952 166.696 307.056 169H303.168C301.696 165.704 300.256 161.944 298.848 157.72C297.44 153.496 296.112 148.936 294.864 144.04H299.664C299.984 145.544 300.368 147.176 300.816 148.936C301.264 150.696 301.728 152.456 302.208 154.216C302.72 155.976 303.248 157.672 303.792 159.304C304.336 160.936 304.848 162.36 305.328 163.576C305.872 162.072 306.4 160.488 306.912 158.824C307.456 157.128 307.968 155.432 308.448 153.736C308.928 152.008 309.376 150.328 309.792 148.696C310.24 147.032 310.624 145.48 310.944 144.04H314.64C314.928 145.48 315.28 147.032 315.696 148.696C316.112 150.328 316.56 152.008 317.04 153.736C317.52 155.432 318.016 157.128 318.528 158.824C319.072 160.488 319.616 162.072 320.16 163.576C320.64 162.36 321.136 160.936 321.648 159.304C322.192 157.672 322.72 155.976 323.232 154.216C323.744 152.456 324.224 150.696 324.672 148.936C325.12 147.176 325.504 145.544 325.824 144.04H330.432C329.184 148.936 327.856 153.496 326.448 157.72C325.04 161.944 323.6 165.704 322.128 169H318.24ZM335.153 169V132.52L339.617 131.752V144.52C340.449 144.2 341.329 143.96 342.257 143.8C343.217 143.608 344.161 143.512 345.089 143.512C347.073 143.512 348.721 143.8 350.033 144.376C351.345 144.92 352.385 145.704 353.153 146.728C353.953 147.72 354.513 148.92 354.833 150.328C355.153 151.736 355.312 153.288 355.312 154.984V169H350.849V155.944C350.849 154.408 350.737 153.096 350.513 152.008C350.321 150.92 349.985 150.04 349.505 149.368C349.025 148.696 348.385 148.216 347.585 147.928C346.785 147.608 345.793 147.448 344.609 147.448C344.129 147.448 343.633 147.48 343.121 147.544C342.609 147.608 342.113 147.688 341.633 147.784C341.185 147.848 340.769 147.928 340.385 148.024C340.033 148.12 339.777 148.2 339.617 148.264V169H335.153ZM371.022 165.784C372.078 165.784 373.006 165.768 373.806 165.736C374.638 165.672 375.326 165.576 375.87 165.448V158.008C375.55 157.848 375.022 157.72 374.286 157.624C373.582 157.496 372.718 157.432 371.694 157.432C371.022 157.432 370.302 157.48 369.534 157.576C368.798 157.672 368.11 157.88 367.47 158.2C366.862 158.488 366.35 158.904 365.934 159.448C365.518 159.96 365.31 160.648 365.31 161.512C365.31 163.112 365.822 164.232 366.846 164.872C367.87 165.48 369.262 165.784 371.022 165.784ZM370.638 143.416C372.43 143.416 373.934 143.656 375.15 144.136C376.398 144.584 377.39 145.24 378.126 146.104C378.894 146.936 379.438 147.944 379.758 149.128C380.078 150.28 380.238 151.56 380.238 152.968V168.568C379.854 168.632 379.31 168.728 378.606 168.856C377.934 168.952 377.166 169.048 376.302 169.144C375.438 169.24 374.494 169.32 373.47 169.384C372.478 169.48 371.486 169.528 370.494 169.528C369.086 169.528 367.79 169.384 366.606 169.096C365.422 168.808 364.398 168.36 363.534 167.752C362.67 167.112 361.998 166.28 361.518 165.256C361.038 164.232 360.798 163 360.798 161.56C360.798 160.184 361.07 159 361.614 158.008C362.19 157.016 362.958 156.216 363.918 155.608C364.878 155 365.998 154.552 367.278 154.264C368.558 153.976 369.902 153.832 371.31 153.832C371.758 153.832 372.222 153.864 372.702 153.928C373.182 153.96 373.63 154.024 374.046 154.12C374.494 154.184 374.878 154.248 375.198 154.312C375.518 154.376 375.742 154.424 375.87 154.456V153.208C375.87 152.472 375.79 151.752 375.63 151.048C375.47 150.312 375.182 149.672 374.766 149.128C374.35 148.552 373.774 148.104 373.038 147.784C372.334 147.432 371.406 147.256 370.254 147.256C368.782 147.256 367.486 147.368 366.366 147.592C365.278 147.784 364.462 147.992 363.918 148.216L363.39 144.52C363.966 144.264 364.926 144.024 366.27 143.8C367.614 143.544 369.07 143.416 370.638 143.416ZM391.829 144.04H401.285V147.784H391.829V159.304C391.829 160.552 391.925 161.592 392.117 162.424C392.309 163.224 392.597 163.864 392.981 164.344C393.365 164.792 393.845 165.112 394.421 165.304C394.997 165.496 395.669 165.592 396.437 165.592C397.781 165.592 398.853 165.448 399.653 165.16C400.485 164.84 401.061 164.616 401.381 164.488L402.245 168.184C401.797 168.408 401.013 168.68 399.893 169C398.773 169.352 397.493 169.528 396.053 169.528C394.357 169.528 392.949 169.32 391.829 168.904C390.741 168.456 389.861 167.8 389.189 166.936C388.517 166.072 388.037 165.016 387.749 163.768C387.493 162.488 387.365 161.016 387.365 159.352V137.08L391.829 136.312V144.04ZM405.104 156.568C405.104 154.36 405.424 152.44 406.064 150.808C406.704 149.144 407.552 147.768 408.608 146.68C409.664 145.592 410.88 144.776 412.256 144.232C413.632 143.688 415.04 143.416 416.48 143.416C419.84 143.416 422.416 144.472 424.208 146.584C426 148.664 426.896 151.848 426.896 156.136C426.896 156.328 426.896 156.584 426.896 156.904C426.896 157.192 426.88 157.464 426.848 157.72H409.76C409.952 160.312 410.704 162.28 412.016 163.624C413.328 164.968 415.376 165.64 418.16 165.64C419.728 165.64 421.04 165.512 422.096 165.256C423.184 164.968 424 164.696 424.544 164.44L425.168 168.184C424.624 168.472 423.664 168.776 422.288 169.096C420.944 169.416 419.408 169.576 417.68 169.576C415.504 169.576 413.616 169.256 412.016 168.616C410.448 167.944 409.152 167.032 408.128 165.88C407.104 164.728 406.336 163.368 405.824 161.8C405.344 160.2 405.104 158.456 405.104 156.568ZM422.24 154.12C422.272 152.104 421.76 150.456 420.704 149.176C419.68 147.864 418.256 147.208 416.432 147.208C415.408 147.208 414.496 147.416 413.696 147.832C412.928 148.216 412.272 148.728 411.728 149.368C411.184 150.008 410.752 150.744 410.432 151.576C410.144 152.408 409.952 153.256 409.856 154.12H422.24ZM452.797 144.04C451.549 148.712 450.077 153.192 448.381 157.48C446.717 161.768 445.101 165.608 443.533 169H439.501C437.933 165.608 436.301 161.768 434.605 157.48C432.941 153.192 431.485 148.712 430.237 144.04H435.037C435.421 145.608 435.869 147.288 436.381 149.08C436.925 150.84 437.485 152.6 438.061 154.36C438.669 156.088 439.277 157.768 439.885 159.4C440.493 161.032 441.069 162.488 441.613 163.768C442.157 162.488 442.733 161.032 443.341 159.4C443.949 157.768 444.541 156.088 445.117 154.36C445.725 152.6 446.285 150.84 446.797 149.08C447.341 147.288 447.805 145.608 448.189 144.04H452.797ZM455.354 156.568C455.354 154.36 455.674 152.44 456.314 150.808C456.954 149.144 457.802 147.768 458.858 146.68C459.914 145.592 461.13 144.776 462.506 144.232C463.882 143.688 465.29 143.416 466.73 143.416C470.09 143.416 472.666 144.472 474.458 146.584C476.25 148.664 477.146 151.848 477.146 156.136C477.146 156.328 477.146 156.584 477.146 156.904C477.146 157.192 477.13 157.464 477.098 157.72H460.01C460.202 160.312 460.954 162.28 462.266 163.624C463.578 164.968 465.626 165.64 468.41 165.64C469.978 165.64 471.29 165.512 472.346 165.256C473.434 164.968 474.25 164.696 474.794 164.44L475.418 168.184C474.874 168.472 473.914 168.776 472.538 169.096C471.194 169.416 469.658 169.576 467.93 169.576C465.754 169.576 463.866 169.256 462.266 168.616C460.698 167.944 459.402 167.032 458.378 165.88C457.354 164.728 456.586 163.368 456.074 161.8C455.594 160.2 455.354 158.456 455.354 156.568ZM472.49 154.12C472.522 152.104 472.01 150.456 470.954 149.176C469.93 147.864 468.506 147.208 466.682 147.208C465.658 147.208 464.746 147.416 463.946 147.832C463.178 148.216 462.522 148.728 461.978 149.368C461.434 150.008 461.002 150.744 460.682 151.576C460.394 152.408 460.202 153.256 460.106 154.12H472.49ZM492.775 143.512C493.159 143.512 493.591 143.544 494.071 143.608C494.583 143.64 495.079 143.704 495.559 143.8C496.039 143.864 496.471 143.944 496.855 144.04C497.271 144.104 497.575 144.168 497.767 144.232L496.999 148.12C496.647 147.992 496.055 147.848 495.223 147.688C494.423 147.496 493.383 147.4 492.103 147.4C491.271 147.4 490.439 147.496 489.607 147.688C488.807 147.848 488.279 147.96 488.023 148.024V169H483.559V145.096C484.615 144.712 485.927 144.36 487.495 144.04C489.063 143.688 490.823 143.512 492.775 143.512ZM518.992 165.784C520.816 165.784 522.16 165.544 523.024 165.064C523.92 164.584 524.368 163.816 524.368 162.76C524.368 161.672 523.936 160.808 523.072 160.168C522.208 159.528 520.784 158.808 518.8 158.008C517.84 157.624 516.912 157.24 516.016 156.856C515.152 156.44 514.4 155.96 513.76 155.416C513.12 154.872 512.608 154.216 512.224 153.448C511.84 152.68 511.648 151.736 511.648 150.616C511.648 148.408 512.464 146.664 514.096 145.384C515.728 144.072 517.952 143.416 520.768 143.416C521.472 143.416 522.176 143.464 522.88 143.56C523.584 143.624 524.24 143.72 524.848 143.848C525.456 143.944 525.984 144.056 526.432 144.184C526.912 144.312 527.28 144.424 527.536 144.52L526.72 148.36C526.24 148.104 525.488 147.848 524.464 147.592C523.44 147.304 522.208 147.16 520.768 147.16C519.52 147.16 518.432 147.416 517.504 147.928C516.576 148.408 516.112 149.176 516.112 150.232C516.112 150.776 516.208 151.256 516.4 151.672C516.624 152.088 516.944 152.472 517.36 152.824C517.808 153.144 518.352 153.448 518.992 153.736C519.632 154.024 520.4 154.328 521.296 154.648C522.48 155.096 523.536 155.544 524.464 155.992C525.392 156.408 526.176 156.904 526.816 157.48C527.488 158.056 528 158.76 528.352 159.592C528.704 160.392 528.88 161.384 528.88 162.568C528.88 164.872 528.016 166.616 526.288 167.8C524.592 168.984 522.16 169.576 518.992 169.576C516.784 169.576 515.056 169.384 513.808 169C512.56 168.648 511.712 168.376 511.264 168.184L512.08 164.344C512.592 164.536 513.408 164.824 514.528 165.208C515.648 165.592 517.136 165.784 518.992 165.784ZM556.638 156.52C556.638 158.504 556.35 160.296 555.774 161.896C555.198 163.496 554.382 164.872 553.326 166.024C552.302 167.176 551.07 168.072 549.63 168.712C548.19 169.32 546.622 169.624 544.926 169.624C543.23 169.624 541.662 169.32 540.222 168.712C538.782 168.072 537.534 167.176 536.478 166.024C535.454 164.872 534.654 163.496 534.078 161.896C533.502 160.296 533.214 158.504 533.214 156.52C533.214 154.568 533.502 152.792 534.078 151.192C534.654 149.56 535.454 148.168 536.478 147.016C537.534 145.864 538.782 144.984 540.222 144.376C541.662 143.736 543.23 143.416 544.926 143.416C546.622 143.416 548.19 143.736 549.63 144.376C551.07 144.984 552.302 145.864 553.326 147.016C554.382 148.168 555.198 149.56 555.774 151.192C556.35 152.792 556.638 154.568 556.638 156.52ZM551.982 156.52C551.982 153.704 551.342 151.48 550.062 149.848C548.814 148.184 547.102 147.352 544.926 147.352C542.75 147.352 541.022 148.184 539.742 149.848C538.494 151.48 537.87 153.704 537.87 156.52C537.87 159.336 538.494 161.576 539.742 163.24C541.022 164.872 542.75 165.688 544.926 165.688C547.102 165.688 548.814 164.872 550.062 163.24C551.342 161.576 551.982 159.336 551.982 156.52ZM562.918 144.76C563.942 144.504 565.286 144.232 566.95 143.944C568.646 143.656 570.598 143.512 572.806 143.512C574.406 143.512 575.75 143.736 576.838 144.184C577.926 144.6 578.838 145.224 579.574 146.056C579.798 145.896 580.15 145.672 580.63 145.384C581.11 145.096 581.702 144.824 582.406 144.568C583.11 144.28 583.894 144.04 584.758 143.848C585.622 143.624 586.55 143.512 587.542 143.512C589.462 143.512 591.03 143.8 592.246 144.376C593.462 144.92 594.406 145.704 595.078 146.728C595.782 147.752 596.246 148.968 596.47 150.376C596.726 151.784 596.854 153.32 596.854 154.984V169H592.39V155.944C592.39 154.472 592.31 153.208 592.15 152.152C592.022 151.096 591.75 150.216 591.334 149.512C590.95 148.808 590.406 148.296 589.702 147.976C589.03 147.624 588.15 147.448 587.062 147.448C585.558 147.448 584.31 147.656 583.318 148.072C582.358 148.456 581.702 148.808 581.35 149.128C581.606 149.96 581.798 150.872 581.926 151.864C582.054 152.856 582.118 153.896 582.118 154.984V169H577.654V155.944C577.654 154.472 577.574 153.208 577.414 152.152C577.254 151.096 576.966 150.216 576.55 149.512C576.166 148.808 575.622 148.296 574.918 147.976C574.246 147.624 573.382 147.448 572.326 147.448C571.878 147.448 571.398 147.464 570.886 147.496C570.374 147.528 569.878 147.576 569.398 147.64C568.95 147.672 568.534 147.72 568.15 147.784C567.766 147.848 567.51 147.896 567.382 147.928V169H562.918V144.76ZM602.87 156.568C602.87 154.36 603.19 152.44 603.83 150.808C604.47 149.144 605.318 147.768 606.374 146.68C607.43 145.592 608.646 144.776 610.022 144.232C611.398 143.688 612.806 143.416 614.246 143.416C617.606 143.416 620.182 144.472 621.974 146.584C623.766 148.664 624.662 151.848 624.662 156.136C624.662 156.328 624.662 156.584 624.662 156.904C624.662 157.192 624.646 157.464 624.614 157.72H607.526C607.718 160.312 608.47 162.28 609.782 163.624C611.094 164.968 613.142 165.64 615.926 165.64C617.494 165.64 618.806 165.512 619.862 165.256C620.95 164.968 621.766 164.696 622.31 164.44L622.934 168.184C622.39 168.472 621.43 168.776 620.054 169.096C618.71 169.416 617.174 169.576 615.446 169.576C613.27 169.576 611.382 169.256 609.782 168.616C608.214 167.944 606.918 167.032 605.894 165.88C604.87 164.728 604.102 163.368 603.59 161.8C603.11 160.2 602.87 158.456 602.87 156.568ZM620.006 154.12C620.038 152.104 619.526 150.456 618.47 149.176C617.446 147.864 616.022 147.208 614.198 147.208C613.174 147.208 612.262 147.416 611.462 147.832C610.694 148.216 610.038 148.728 609.494 149.368C608.95 150.008 608.518 150.744 608.198 151.576C607.91 152.408 607.718 153.256 607.622 154.12H620.006ZM653.106 156.52C653.106 158.504 652.818 160.296 652.242 161.896C651.666 163.496 650.85 164.872 649.794 166.024C648.77 167.176 647.538 168.072 646.098 168.712C644.658 169.32 643.09 169.624 641.394 169.624C639.698 169.624 638.13 169.32 636.69 168.712C635.25 168.072 634.002 167.176 632.946 166.024C631.922 164.872 631.122 163.496 630.546 161.896C629.97 160.296 629.682 158.504 629.682 156.52C629.682 154.568 629.97 152.792 630.546 151.192C631.122 149.56 631.922 148.168 632.946 147.016C634.002 145.864 635.25 144.984 636.69 144.376C638.13 143.736 639.698 143.416 641.394 143.416C643.09 143.416 644.658 143.736 646.098 144.376C647.538 144.984 648.77 145.864 649.794 147.016C650.85 148.168 651.666 149.56 652.242 151.192C652.818 152.792 653.106 154.568 653.106 156.52ZM648.45 156.52C648.45 153.704 647.81 151.48 646.53 149.848C645.282 148.184 643.57 147.352 641.394 147.352C639.218 147.352 637.49 148.184 636.21 149.848C634.962 151.48 634.338 153.704 634.338 156.52C634.338 159.336 634.962 161.576 636.21 163.24C637.49 164.872 639.218 165.688 641.394 165.688C643.57 165.688 645.282 164.872 646.53 163.24C647.81 161.576 648.45 159.336 648.45 156.52ZM659.387 144.76C660.411 144.504 661.771 144.232 663.467 143.944C665.163 143.656 667.115 143.512 669.323 143.512C671.307 143.512 672.955 143.8 674.267 144.376C675.579 144.92 676.619 145.704 677.387 146.728C678.187 147.72 678.747 148.92 679.067 150.328C679.387 151.736 679.547 153.288 679.547 154.984V169H675.083V155.944C675.083 154.408 674.971 153.096 674.747 152.008C674.555 150.92 674.219 150.04 673.739 149.368C673.259 148.696 672.619 148.216 671.819 147.928C671.019 147.608 670.027 147.448 668.843 147.448C668.363 147.448 667.867 147.464 667.355 147.496C666.843 147.528 666.347 147.576 665.867 147.64C665.419 147.672 665.003 147.72 664.619 147.784C664.267 147.848 664.011 147.896 663.851 147.928V169H659.387V144.76ZM685.557 156.568C685.557 154.36 685.877 152.44 686.517 150.808C687.157 149.144 688.005 147.768 689.061 146.68C690.117 145.592 691.333 144.776 692.709 144.232C694.085 143.688 695.493 143.416 696.933 143.416C700.293 143.416 702.869 144.472 704.661 146.584C706.453 148.664 707.349 151.848 707.349 156.136C707.349 156.328 707.349 156.584 707.349 156.904C707.349 157.192 707.333 157.464 707.301 157.72H690.213C690.405 160.312 691.157 162.28 692.469 163.624C693.781 164.968 695.829 165.64 698.613 165.64C700.181 165.64 701.493 165.512 702.549 165.256C703.637 164.968 704.453 164.696 704.997 164.44L705.621 168.184C705.077 168.472 704.117 168.776 702.741 169.096C701.397 169.416 699.861 169.576 698.133 169.576C695.957 169.576 694.069 169.256 692.469 168.616C690.901 167.944 689.605 167.032 688.581 165.88C687.557 164.728 686.789 163.368 686.277 161.8C685.797 160.2 685.557 158.456 685.557 156.568ZM702.693 154.12C702.725 152.104 702.213 150.456 701.157 149.176C700.133 147.864 698.709 147.208 696.885 147.208C695.861 147.208 694.949 147.416 694.149 147.832C693.381 148.216 692.725 148.728 692.181 149.368C691.637 150.008 691.205 150.744 690.885 151.576C690.597 152.408 690.405 153.256 690.309 154.12H702.693ZM723.479 156.568C723.479 154.36 723.799 152.44 724.439 150.808C725.079 149.144 725.927 147.768 726.983 146.68C728.039 145.592 729.255 144.776 730.631 144.232C732.007 143.688 733.415 143.416 734.855 143.416C738.215 143.416 740.791 144.472 742.583 146.584C744.375 148.664 745.271 151.848 745.271 156.136C745.271 156.328 745.271 156.584 745.271 156.904C745.271 157.192 745.255 157.464 745.223 157.72H728.135C728.327 160.312 729.079 162.28 730.391 163.624C731.703 164.968 733.751 165.64 736.535 165.64C738.103 165.64 739.415 165.512 740.471 165.256C741.559 164.968 742.375 164.696 742.919 164.44L743.543 168.184C742.999 168.472 742.039 168.776 740.663 169.096C739.319 169.416 737.783 169.576 736.055 169.576C733.879 169.576 731.991 169.256 730.391 168.616C728.823 167.944 727.527 167.032 726.503 165.88C725.479 164.728 724.711 163.368 724.199 161.8C723.719 160.2 723.479 158.456 723.479 156.568ZM740.615 154.12C740.647 152.104 740.135 150.456 739.079 149.176C738.055 147.864 736.631 147.208 734.807 147.208C733.783 147.208 732.871 147.416 732.071 147.832C731.303 148.216 730.647 148.728 730.103 149.368C729.559 150.008 729.127 150.744 728.807 151.576C728.519 152.408 728.327 153.256 728.231 154.12H740.615ZM759.172 169.48C756.42 169.416 754.468 168.824 753.316 167.704C752.164 166.584 751.588 164.84 751.588 162.472V132.52L756.052 131.752V161.752C756.052 162.488 756.116 163.096 756.244 163.576C756.372 164.056 756.58 164.44 756.868 164.728C757.156 165.016 757.54 165.24 758.02 165.4C758.5 165.528 759.092 165.64 759.796 165.736L759.172 169.48ZM770.617 165.784C772.441 165.784 773.785 165.544 774.649 165.064C775.545 164.584 775.993 163.816 775.993 162.76C775.993 161.672 775.561 160.808 774.697 160.168C773.833 159.528 772.409 158.808 770.425 158.008C769.465 157.624 768.537 157.24 767.641 156.856C766.777 156.44 766.025 155.96 765.385 155.416C764.745 154.872 764.233 154.216 763.849 153.448C763.465 152.68 763.273 151.736 763.273 150.616C763.273 148.408 764.089 146.664 765.721 145.384C767.353 144.072 769.577 143.416 772.393 143.416C773.097 143.416 773.801 143.464 774.505 143.56C775.209 143.624 775.865 143.72 776.473 143.848C777.081 143.944 777.609 144.056 778.057 144.184C778.537 144.312 778.905 144.424 779.161 144.52L778.345 148.36C777.865 148.104 777.113 147.848 776.089 147.592C775.065 147.304 773.833 147.16 772.393 147.16C771.145 147.16 770.057 147.416 769.129 147.928C768.201 148.408 767.737 149.176 767.737 150.232C767.737 150.776 767.833 151.256 768.025 151.672C768.249 152.088 768.569 152.472 768.985 152.824C769.433 153.144 769.977 153.448 770.617 153.736C771.257 154.024 772.025 154.328 772.921 154.648C774.105 155.096 775.161 155.544 776.089 155.992C777.017 156.408 777.801 156.904 778.441 157.48C779.113 158.056 779.625 158.76 779.977 159.592C780.329 160.392 780.505 161.384 780.505 162.568C780.505 164.872 779.641 166.616 777.913 167.8C776.217 168.984 773.785 169.576 770.617 169.576C768.409 169.576 766.681 169.384 765.433 169C764.185 168.648 763.337 168.376 762.889 168.184L763.705 164.344C764.217 164.536 765.033 164.824 766.153 165.208C767.273 165.592 768.761 165.784 770.617 165.784ZM784.839 156.568C784.839 154.36 785.159 152.44 785.799 150.808C786.439 149.144 787.287 147.768 788.343 146.68C789.399 145.592 790.615 144.776 791.991 144.232C793.367 143.688 794.775 143.416 796.215 143.416C799.575 143.416 802.151 144.472 803.943 146.584C805.735 148.664 806.631 151.848 806.631 156.136C806.631 156.328 806.631 156.584 806.631 156.904C806.631 157.192 806.615 157.464 806.583 157.72H789.495C789.687 160.312 790.439 162.28 791.751 163.624C793.063 164.968 795.111 165.64 797.895 165.64C799.463 165.64 800.775 165.512 801.831 165.256C802.919 164.968 803.735 164.696 804.279 164.44L804.903 168.184C804.359 168.472 803.399 168.776 802.023 169.096C800.679 169.416 799.143 169.576 797.415 169.576C795.239 169.576 793.351 169.256 791.751 168.616C790.183 167.944 788.887 167.032 787.863 165.88C786.839 164.728 786.071 163.368 785.559 161.8C785.079 160.2 784.839 158.456 784.839 156.568ZM801.975 154.12C802.007 152.104 801.495 150.456 800.439 149.176C799.415 147.864 797.991 147.208 796.167 147.208C795.143 147.208 794.231 147.416 793.431 147.832C792.663 148.216 792.007 148.728 791.463 149.368C790.919 150.008 790.487 150.744 790.167 151.576C789.879 152.408 789.687 153.256 789.591 154.12H801.975ZM824.153 169V132.52L828.617 131.752V144.52C829.449 144.2 830.329 143.96 831.257 143.8C832.217 143.608 833.161 143.512 834.089 143.512C836.073 143.512 837.721 143.8 839.033 144.376C840.345 144.92 841.385 145.704 842.153 146.728C842.953 147.72 843.513 148.92 843.833 150.328C844.153 151.736 844.312 153.288 844.312 154.984V169H839.849V155.944C839.849 154.408 839.737 153.096 839.513 152.008C839.321 150.92 838.985 150.04 838.505 149.368C838.025 148.696 837.385 148.216 836.585 147.928C835.785 147.608 834.793 147.448 833.609 147.448C833.129 147.448 832.633 147.48 832.121 147.544C831.609 147.608 831.113 147.688 830.633 147.784C830.185 147.848 829.769 147.928 829.385 148.024C829.033 148.12 828.777 148.2 828.617 148.264V169H824.153ZM860.022 165.784C861.078 165.784 862.006 165.768 862.806 165.736C863.638 165.672 864.326 165.576 864.87 165.448V158.008C864.55 157.848 864.022 157.72 863.286 157.624C862.582 157.496 861.718 157.432 860.694 157.432C860.022 157.432 859.302 157.48 858.534 157.576C857.798 157.672 857.11 157.88 856.47 158.2C855.862 158.488 855.35 158.904 854.934 159.448C854.518 159.96 854.31 160.648 854.31 161.512C854.31 163.112 854.822 164.232 855.846 164.872C856.87 165.48 858.262 165.784 860.022 165.784ZM859.638 143.416C861.43 143.416 862.934 143.656 864.15 144.136C865.398 144.584 866.39 145.24 867.126 146.104C867.894 146.936 868.438 147.944 868.758 149.128C869.078 150.28 869.238 151.56 869.238 152.968V168.568C868.854 168.632 868.31 168.728 867.606 168.856C866.934 168.952 866.166 169.048 865.302 169.144C864.438 169.24 863.494 169.32 862.47 169.384C861.478 169.48 860.486 169.528 859.494 169.528C858.086 169.528 856.79 169.384 855.606 169.096C854.422 168.808 853.398 168.36 852.534 167.752C851.67 167.112 850.998 166.28 850.518 165.256C850.038 164.232 849.798 163 849.798 161.56C849.798 160.184 850.07 159 850.614 158.008C851.19 157.016 851.958 156.216 852.918 155.608C853.878 155 854.998 154.552 856.278 154.264C857.558 153.976 858.902 153.832 860.31 153.832C860.758 153.832 861.222 153.864 861.702 153.928C862.182 153.96 862.63 154.024 863.046 154.12C863.494 154.184 863.878 154.248 864.198 154.312C864.518 154.376 864.742 154.424 864.87 154.456V153.208C864.87 152.472 864.79 151.752 864.63 151.048C864.47 150.312 864.182 149.672 863.766 149.128C863.35 148.552 862.774 148.104 862.038 147.784C861.334 147.432 860.406 147.256 859.254 147.256C857.782 147.256 856.486 147.368 855.366 147.592C854.278 147.784 853.462 147.992 852.918 148.216L852.39 144.52C852.966 144.264 853.926 144.024 855.27 143.8C856.614 143.544 858.07 143.416 859.638 143.416ZM882.461 165.784C884.285 165.784 885.629 165.544 886.493 165.064C887.389 164.584 887.837 163.816 887.837 162.76C887.837 161.672 887.405 160.808 886.541 160.168C885.677 159.528 884.253 158.808 882.269 158.008C881.309 157.624 880.381 157.24 879.485 156.856C878.621 156.44 877.869 155.96 877.229 155.416C876.589 154.872 876.077 154.216 875.693 153.448C875.309 152.68 875.117 151.736 875.117 150.616C875.117 148.408 875.933 146.664 877.565 145.384C879.197 144.072 881.421 143.416 884.237 143.416C884.941 143.416 885.645 143.464 886.349 143.56C887.053 143.624 887.709 143.72 888.317 143.848C888.925 143.944 889.453 144.056 889.901 144.184C890.381 144.312 890.749 144.424 891.005 144.52L890.189 148.36C889.709 148.104 888.957 147.848 887.933 147.592C886.909 147.304 885.677 147.16 884.237 147.16C882.989 147.16 881.901 147.416 880.973 147.928C880.045 148.408 879.581 149.176 879.581 150.232C879.581 150.776 879.677 151.256 879.868 151.672C880.093 152.088 880.413 152.472 880.829 152.824C881.277 153.144 881.821 153.448 882.461 153.736C883.101 154.024 883.869 154.328 884.765 154.648C885.949 155.096 887.005 155.544 887.933 155.992C888.861 156.408 889.645 156.904 890.285 157.48C890.957 158.056 891.469 158.76 891.821 159.592C892.173 160.392 892.349 161.384 892.349 162.568C892.349 164.872 891.485 166.616 889.757 167.8C888.061 168.984 885.629 169.576 882.461 169.576C880.253 169.576 878.525 169.384 877.277 169C876.029 168.648 875.181 168.376 874.733 168.184L875.549 164.344C876.061 164.536 876.877 164.824 877.997 165.208C879.117 165.592 880.605 165.784 882.461 165.784ZM903.354 166.408C903.354 167.272 903.066 168.024 902.49 168.664C901.914 169.304 901.13 169.624 900.138 169.624C899.146 169.624 898.362 169.304 897.786 168.664C897.21 168.024 896.922 167.272 896.922 166.408C896.922 165.544 897.21 164.792 897.786 164.152C898.362 163.512 899.146 163.192 900.138 163.192C901.13 163.192 901.914 163.512 902.49 164.152C903.066 164.792 903.354 165.544 903.354 166.408Z" fill="black"/>
<rect width="150" height="150" transform="translate(104 49)" fill="#6B7280"/>
<path d="M140.376 147V113.912H127.256V102.2H168.6V113.912H155.48V147H140.376ZM172.523 147V102.2H184.939L202.859 131.448H196.331L213.739 102.2H226.155L226.283 147H212.523L212.395 122.936H214.571L202.667 142.968H196.011L183.595 122.936H186.283V147H172.523Z" fill="white"/>
<rect x="10" y="10" width="1019" height="227" stroke="#6B7280" stroke-width="20"/>
</svg>
