<svg width="1039" height="247" viewBox="0 0 1039 247" fill="none" xmlns="http://www.w3.org/2000/svg">
<rect width="1039" height="247" fill="#6B7280"/>
<path d="M227.219 80.736V84.768H216.755V114H212.099V84.768H201.635V80.736H227.219ZM239.142 88.512C239.526 88.512 239.958 88.544 240.438 88.608C240.95 88.64 241.446 88.704 241.926 88.8C242.406 88.864 242.838 88.944 243.222 89.04C243.638 89.104 243.942 89.168 244.134 89.232L243.366 93.12C243.014 92.992 242.422 92.848 241.59 92.688C240.79 92.496 239.75 92.4 238.47 92.4C237.638 92.4 236.806 92.496 235.974 92.688C235.174 92.848 234.646 92.96 234.39 93.024V114H229.926V90.096C230.982 89.712 232.294 89.36 233.862 89.04C235.43 88.688 237.19 88.512 239.142 88.512ZM256.89 110.784C257.946 110.784 258.874 110.768 259.674 110.736C260.506 110.672 261.194 110.576 261.738 110.448V103.008C261.418 102.848 260.89 102.72 260.154 102.624C259.45 102.496 258.586 102.432 257.562 102.432C256.89 102.432 256.17 102.48 255.402 102.576C254.666 102.672 253.978 102.88 253.338 103.2C252.73 103.488 252.218 103.904 251.802 104.448C251.386 104.96 251.178 105.648 251.178 106.512C251.178 108.112 251.69 109.232 252.714 109.872C253.738 110.48 255.13 110.784 256.89 110.784ZM256.506 88.416C258.298 88.416 259.802 88.656 261.018 89.136C262.266 89.584 263.258 90.24 263.994 91.104C264.762 91.936 265.306 92.944 265.626 94.128C265.946 95.28 266.106 96.56 266.106 97.968V113.568C265.722 113.632 265.178 113.728 264.474 113.856C263.802 113.952 263.034 114.048 262.17 114.144C261.306 114.24 260.362 114.32 259.338 114.384C258.346 114.48 257.354 114.528 256.362 114.528C254.954 114.528 253.658 114.384 252.474 114.096C251.29 113.808 250.266 113.36 249.402 112.752C248.538 112.112 247.866 111.28 247.386 110.256C246.906 109.232 246.666 108 246.666 106.56C246.666 105.184 246.938 104 247.482 103.008C248.058 102.016 248.826 101.216 249.786 100.608C250.746 100 251.866 99.552 253.146 99.264C254.426 98.976 255.77 98.832 257.178 98.832C257.626 98.832 258.09 98.864 258.57 98.928C259.05 98.96 259.498 99.024 259.914 99.12C260.362 99.184 260.746 99.248 261.066 99.312C261.386 99.376 261.61 99.424 261.738 99.456V98.208C261.738 97.472 261.658 96.752 261.498 96.048C261.338 95.312 261.05 94.672 260.634 94.128C260.218 93.552 259.642 93.104 258.906 92.784C258.202 92.432 257.274 92.256 256.122 92.256C254.65 92.256 253.354 92.368 252.234 92.592C251.146 92.784 250.33 92.992 249.786 93.216L249.258 89.52C249.834 89.264 250.794 89.024 252.138 88.8C253.482 88.544 254.938 88.416 256.506 88.416ZM289.648 94.32C289.104 93.872 288.32 93.44 287.296 93.024C286.272 92.608 285.152 92.4 283.936 92.4C282.656 92.4 281.552 92.64 280.624 93.12C279.728 93.568 278.992 94.208 278.416 95.04C277.84 95.84 277.424 96.8 277.168 97.92C276.912 99.04 276.784 100.24 276.784 101.52C276.784 104.432 277.504 106.688 278.944 108.288C280.384 109.856 282.304 110.64 284.704 110.64C285.92 110.64 286.928 110.592 287.728 110.496C288.56 110.368 289.2 110.24 289.648 110.112V94.32ZM289.648 77.52L294.112 76.752V113.28C293.088 113.568 291.776 113.856 290.176 114.144C288.576 114.432 286.736 114.576 284.656 114.576C282.736 114.576 281.008 114.272 279.472 113.664C277.936 113.056 276.624 112.192 275.536 111.072C274.448 109.952 273.6 108.592 272.992 106.992C272.416 105.36 272.128 103.536 272.128 101.52C272.128 99.6 272.368 97.84 272.848 96.24C273.36 94.64 274.096 93.264 275.056 92.112C276.016 90.96 277.184 90.064 278.56 89.424C279.968 88.784 281.568 88.464 283.36 88.464C284.8 88.464 286.064 88.656 287.152 89.04C288.272 89.424 289.104 89.792 289.648 90.144V77.52ZM300.393 101.568C300.393 99.36 300.713 97.44 301.353 95.808C301.993 94.144 302.841 92.768 303.897 91.68C304.953 90.592 306.169 89.776 307.545 89.232C308.921 88.688 310.329 88.416 311.769 88.416C315.129 88.416 317.705 89.472 319.497 91.584C321.289 93.664 322.185 96.848 322.185 101.136C322.185 101.328 322.185 101.584 322.185 101.904C322.185 102.192 322.169 102.464 322.137 102.72H305.049C305.241 105.312 305.993 107.28 307.305 108.624C308.617 109.968 310.665 110.64 313.449 110.64C315.017 110.64 316.329 110.512 317.385 110.256C318.473 109.968 319.289 109.696 319.833 109.44L320.457 113.184C319.913 113.472 318.953 113.776 317.577 114.096C316.233 114.416 314.697 114.576 312.969 114.576C310.793 114.576 308.905 114.256 307.305 113.616C305.737 112.944 304.441 112.032 303.417 110.88C302.393 109.728 301.625 108.368 301.113 106.8C300.633 105.2 300.393 103.456 300.393 101.568ZM317.529 99.12C317.561 97.104 317.049 95.456 315.993 94.176C314.969 92.864 313.545 92.208 311.721 92.208C310.697 92.208 309.785 92.416 308.985 92.832C308.217 93.216 307.561 93.728 307.017 94.368C306.473 95.008 306.041 95.744 305.721 96.576C305.433 97.408 305.241 98.256 305.145 99.12H317.529ZM343.883 89.04H353.339V92.784H343.883V104.304C343.883 105.552 343.979 106.592 344.171 107.424C344.363 108.224 344.651 108.864 345.035 109.344C345.419 109.792 345.899 110.112 346.475 110.304C347.051 110.496 347.723 110.592 348.491 110.592C349.835 110.592 350.907 110.448 351.707 110.16C352.539 109.84 353.115 109.616 353.435 109.488L354.299 113.184C353.851 113.408 353.067 113.68 351.947 114C350.827 114.352 349.547 114.528 348.107 114.528C346.411 114.528 345.003 114.32 343.883 113.904C342.795 113.456 341.915 112.8 341.243 111.936C340.571 111.072 340.091 110.016 339.803 108.768C339.547 107.488 339.419 106.016 339.419 104.352V82.08L343.883 81.312V89.04ZM359.02 114V77.52L363.484 76.752V89.52C364.316 89.2 365.196 88.96 366.124 88.8C367.084 88.608 368.028 88.512 368.956 88.512C370.94 88.512 372.588 88.8 373.9 89.376C375.212 89.92 376.252 90.704 377.02 91.728C377.82 92.72 378.38 93.92 378.7 95.328C379.02 96.736 379.18 98.288 379.18 99.984V114H374.716V100.944C374.716 99.408 374.604 98.096 374.38 97.008C374.188 95.92 373.852 95.04 373.372 94.368C372.892 93.696 372.252 93.216 371.452 92.928C370.652 92.608 369.66 92.448 368.476 92.448C367.996 92.448 367.5 92.48 366.988 92.544C366.476 92.608 365.98 92.688 365.5 92.784C365.052 92.848 364.636 92.928 364.252 93.024C363.9 93.12 363.644 93.2 363.484 93.264V114H359.02ZM385.05 101.568C385.05 99.36 385.37 97.44 386.01 95.808C386.65 94.144 387.498 92.768 388.554 91.68C389.61 90.592 390.826 89.776 392.202 89.232C393.578 88.688 394.986 88.416 396.426 88.416C399.786 88.416 402.362 89.472 404.154 91.584C405.946 93.664 406.842 96.848 406.842 101.136C406.842 101.328 406.842 101.584 406.842 101.904C406.842 102.192 406.826 102.464 406.794 102.72H389.706C389.898 105.312 390.65 107.28 391.962 108.624C393.274 109.968 395.322 110.64 398.106 110.64C399.674 110.64 400.986 110.512 402.042 110.256C403.13 109.968 403.946 109.696 404.49 109.44L405.114 113.184C404.57 113.472 403.61 113.776 402.234 114.096C400.89 114.416 399.354 114.576 397.626 114.576C395.45 114.576 393.562 114.256 391.962 113.616C390.394 112.944 389.098 112.032 388.074 110.88C387.05 109.728 386.282 108.368 385.77 106.8C385.29 105.2 385.05 103.456 385.05 101.568ZM402.186 99.12C402.218 97.104 401.706 95.456 400.65 94.176C399.626 92.864 398.202 92.208 396.378 92.208C395.354 92.208 394.442 92.416 393.642 92.832C392.874 93.216 392.218 93.728 391.674 94.368C391.13 95.008 390.698 95.744 390.378 96.576C390.09 97.408 389.898 98.256 389.802 99.12H402.186ZM430.171 110.784C431.995 110.784 433.339 110.544 434.203 110.064C435.099 109.584 435.547 108.816 435.547 107.76C435.547 106.672 435.115 105.808 434.251 105.168C433.387 104.528 431.963 103.808 429.979 103.008C429.019 102.624 428.091 102.24 427.195 101.856C426.331 101.44 425.579 100.96 424.939 100.416C424.299 99.872 423.787 99.216 423.403 98.448C423.019 97.68 422.827 96.736 422.827 95.616C422.827 93.408 423.643 91.664 425.275 90.384C426.907 89.072 429.131 88.416 431.947 88.416C432.651 88.416 433.355 88.464 434.059 88.56C434.763 88.624 435.419 88.72 436.027 88.848C436.635 88.944 437.163 89.056 437.611 89.184C438.091 89.312 438.459 89.424 438.715 89.52L437.899 93.36C437.419 93.104 436.667 92.848 435.643 92.592C434.619 92.304 433.387 92.16 431.947 92.16C430.699 92.16 429.611 92.416 428.683 92.928C427.755 93.408 427.291 94.176 427.291 95.232C427.291 95.776 427.387 96.256 427.579 96.672C427.803 97.088 428.123 97.472 428.539 97.824C428.987 98.144 429.531 98.448 430.171 98.736C430.811 99.024 431.579 99.328 432.475 99.648C433.659 100.096 434.715 100.544 435.643 100.992C436.571 101.408 437.355 101.904 437.995 102.48C438.667 103.056 439.179 103.76 439.531 104.592C439.883 105.392 440.059 106.384 440.059 107.568C440.059 109.872 439.195 111.616 437.467 112.8C435.771 113.984 433.339 114.576 430.171 114.576C427.963 114.576 426.235 114.384 424.987 114C423.739 113.648 422.891 113.376 422.443 113.184L423.259 109.344C423.771 109.536 424.587 109.824 425.707 110.208C426.827 110.592 428.315 110.784 430.171 110.784ZM454.809 100.272C455.769 101.008 456.777 101.92 457.833 103.008C458.921 104.096 459.977 105.28 461.001 106.56C462.057 107.808 463.049 109.088 463.977 110.4C464.905 111.68 465.689 112.88 466.329 114H461.097C460.425 112.88 459.641 111.744 458.745 110.592C457.881 109.408 456.969 108.288 456.009 107.232C455.049 106.144 454.073 105.152 453.081 104.256C452.089 103.36 451.145 102.608 450.249 102V114H445.785V77.52L450.249 76.752V99.504C451.017 98.736 451.865 97.888 452.793 96.96C453.721 96.032 454.633 95.088 455.529 94.128C456.425 93.168 457.273 92.256 458.073 91.392C458.873 90.496 459.561 89.712 460.137 89.04H465.369C464.633 89.84 463.833 90.72 462.969 91.68C462.105 92.64 461.209 93.616 460.281 94.608C459.353 95.568 458.409 96.544 457.449 97.536C456.521 98.496 455.641 99.408 454.809 100.272ZM475.327 114H470.863V89.04H475.327V114ZM473.071 84.528C472.271 84.528 471.583 84.272 471.007 83.76C470.463 83.216 470.191 82.496 470.191 81.6C470.191 80.704 470.463 80 471.007 79.488C471.583 78.944 472.271 78.672 473.071 78.672C473.871 78.672 474.543 78.944 475.087 79.488C475.663 80 475.951 80.704 475.951 81.6C475.951 82.496 475.663 83.216 475.087 83.76C474.543 84.272 473.871 84.528 473.071 84.528ZM490.492 114.48C487.74 114.416 485.788 113.824 484.636 112.704C483.484 111.584 482.908 109.84 482.908 107.472V77.52L487.372 76.752V106.752C487.372 107.488 487.436 108.096 487.564 108.576C487.692 109.056 487.9 109.44 488.188 109.728C488.476 110.016 488.86 110.24 489.34 110.4C489.82 110.528 490.412 110.64 491.116 110.736L490.492 114.48ZM503.617 114.48C500.865 114.416 498.913 113.824 497.761 112.704C496.609 111.584 496.033 109.84 496.033 107.472V77.52L500.497 76.752V106.752C500.497 107.488 500.561 108.096 500.689 108.576C500.817 109.056 501.025 109.44 501.313 109.728C501.601 110.016 501.985 110.24 502.465 110.4C502.945 110.528 503.537 110.64 504.241 110.736L503.617 114.48ZM515.062 110.784C516.886 110.784 518.23 110.544 519.094 110.064C519.99 109.584 520.438 108.816 520.438 107.76C520.438 106.672 520.006 105.808 519.142 105.168C518.278 104.528 516.854 103.808 514.87 103.008C513.91 102.624 512.982 102.24 512.086 101.856C511.222 101.44 510.47 100.96 509.83 100.416C509.19 99.872 508.678 99.216 508.294 98.448C507.91 97.68 507.718 96.736 507.718 95.616C507.718 93.408 508.534 91.664 510.166 90.384C511.798 89.072 514.022 88.416 516.838 88.416C517.542 88.416 518.246 88.464 518.95 88.56C519.654 88.624 520.31 88.72 520.918 88.848C521.526 88.944 522.054 89.056 522.502 89.184C522.982 89.312 523.35 89.424 523.606 89.52L522.79 93.36C522.31 93.104 521.558 92.848 520.534 92.592C519.51 92.304 518.278 92.16 516.838 92.16C515.59 92.16 514.502 92.416 513.574 92.928C512.646 93.408 512.182 94.176 512.182 95.232C512.182 95.776 512.278 96.256 512.47 96.672C512.694 97.088 513.014 97.472 513.43 97.824C513.878 98.144 514.422 98.448 515.062 98.736C515.702 99.024 516.47 99.328 517.366 99.648C518.55 100.096 519.606 100.544 520.534 100.992C521.462 101.408 522.246 101.904 522.886 102.48C523.558 103.056 524.07 103.76 524.422 104.592C524.774 105.392 524.95 106.384 524.95 107.568C524.95 109.872 524.086 111.616 522.358 112.8C520.662 113.984 518.23 114.576 515.062 114.576C512.854 114.576 511.126 114.384 509.878 114C508.63 113.648 507.782 113.376 507.334 113.184L508.15 109.344C508.662 109.536 509.478 109.824 510.598 110.208C511.718 110.592 513.206 110.784 515.062 110.784ZM538.857 118.656C539.209 118.816 539.657 118.96 540.201 119.088C540.777 119.248 541.337 119.328 541.881 119.328C543.641 119.328 545.017 118.928 546.009 118.128C547.001 117.36 547.897 116.096 548.697 114.336C546.681 110.496 544.793 106.432 543.033 102.144C541.305 97.824 539.865 93.456 538.713 89.04H543.513C543.865 90.48 544.281 92.032 544.761 93.696C545.273 95.36 545.833 97.072 546.441 98.832C547.049 100.592 547.705 102.352 548.409 104.112C549.113 105.872 549.849 107.568 550.617 109.2C551.833 105.84 552.889 102.512 553.785 99.216C554.681 95.92 555.529 92.528 556.329 89.04H560.937C559.785 93.744 558.505 98.272 557.097 102.624C555.689 106.944 554.169 110.992 552.537 114.768C551.897 116.208 551.225 117.44 550.521 118.464C549.849 119.52 549.097 120.384 548.265 121.056C547.433 121.728 546.489 122.224 545.433 122.544C544.409 122.864 543.241 123.024 541.929 123.024C541.577 123.024 541.209 122.992 540.825 122.928C540.441 122.896 540.057 122.832 539.673 122.736C539.321 122.672 538.985 122.592 538.665 122.496C538.377 122.4 538.169 122.32 538.041 122.256L538.857 118.656ZM587.677 101.52C587.677 103.504 587.389 105.296 586.813 106.896C586.237 108.496 585.421 109.872 584.365 111.024C583.341 112.176 582.109 113.072 580.669 113.712C579.229 114.32 577.661 114.624 575.965 114.624C574.269 114.624 572.701 114.32 571.261 113.712C569.821 113.072 568.573 112.176 567.517 111.024C566.493 109.872 565.693 108.496 565.117 106.896C564.541 105.296 564.253 103.504 564.253 101.52C564.253 99.568 564.541 97.792 565.117 96.192C565.693 94.56 566.493 93.168 567.517 92.016C568.573 90.864 569.821 89.984 571.261 89.376C572.701 88.736 574.269 88.416 575.965 88.416C577.661 88.416 579.229 88.736 580.669 89.376C582.109 89.984 583.341 90.864 584.365 92.016C585.421 93.168 586.237 94.56 586.813 96.192C587.389 97.792 587.677 99.568 587.677 101.52ZM583.021 101.52C583.021 98.704 582.381 96.48 581.101 94.848C579.853 93.184 578.141 92.352 575.965 92.352C573.789 92.352 572.061 93.184 570.781 94.848C569.533 96.48 568.909 98.704 568.909 101.52C568.909 104.336 569.533 106.576 570.781 108.24C572.061 109.872 573.789 110.688 575.965 110.688C578.141 110.688 579.853 109.872 581.101 108.24C582.381 106.576 583.021 104.336 583.021 101.52ZM613.829 113.28C612.805 113.536 611.445 113.808 609.749 114.096C608.085 114.384 606.149 114.528 603.941 114.528C602.021 114.528 600.405 114.256 599.093 113.712C597.781 113.136 596.725 112.336 595.925 111.312C595.125 110.288 594.549 109.088 594.197 107.712C593.845 106.304 593.669 104.752 593.669 103.056V89.04H598.133V102.096C598.133 105.136 598.613 107.312 599.573 108.624C600.533 109.936 602.149 110.592 604.421 110.592C604.901 110.592 605.397 110.576 605.909 110.544C606.421 110.512 606.901 110.48 607.349 110.448C607.797 110.384 608.197 110.336 608.549 110.304C608.933 110.24 609.205 110.176 609.365 110.112V89.04H613.829V113.28ZM632.629 114V77.52L637.093 76.752V89.52C637.925 89.2 638.805 88.96 639.733 88.8C640.693 88.608 641.637 88.512 642.565 88.512C644.549 88.512 646.197 88.8 647.509 89.376C648.821 89.92 649.861 90.704 650.629 91.728C651.429 92.72 651.989 93.92 652.309 95.328C652.629 96.736 652.789 98.288 652.789 99.984V114H648.325V100.944C648.325 99.408 648.213 98.096 647.989 97.008C647.797 95.92 647.461 95.04 646.981 94.368C646.501 93.696 645.861 93.216 645.061 92.928C644.261 92.608 643.269 92.448 642.085 92.448C641.605 92.448 641.109 92.48 640.597 92.544C640.085 92.608 639.589 92.688 639.109 92.784C638.661 92.848 638.245 92.928 637.861 93.024C637.509 93.12 637.253 93.2 637.093 93.264V114H632.629ZM668.499 110.784C669.555 110.784 670.483 110.768 671.283 110.736C672.115 110.672 672.803 110.576 673.347 110.448V103.008C673.027 102.848 672.499 102.72 671.763 102.624C671.059 102.496 670.195 102.432 669.171 102.432C668.499 102.432 667.779 102.48 667.011 102.576C666.275 102.672 665.587 102.88 664.947 103.2C664.339 103.488 663.827 103.904 663.411 104.448C662.995 104.96 662.787 105.648 662.787 106.512C662.787 108.112 663.299 109.232 664.323 109.872C665.347 110.48 666.739 110.784 668.499 110.784ZM668.115 88.416C669.907 88.416 671.411 88.656 672.627 89.136C673.875 89.584 674.867 90.24 675.603 91.104C676.371 91.936 676.915 92.944 677.235 94.128C677.555 95.28 677.715 96.56 677.715 97.968V113.568C677.331 113.632 676.787 113.728 676.083 113.856C675.411 113.952 674.643 114.048 673.779 114.144C672.915 114.24 671.971 114.32 670.947 114.384C669.955 114.48 668.963 114.528 667.971 114.528C666.563 114.528 665.267 114.384 664.083 114.096C662.899 113.808 661.875 113.36 661.011 112.752C660.147 112.112 659.475 111.28 658.995 110.256C658.515 109.232 658.275 108 658.275 106.56C658.275 105.184 658.547 104 659.091 103.008C659.667 102.016 660.435 101.216 661.395 100.608C662.355 100 663.475 99.552 664.755 99.264C666.035 98.976 667.379 98.832 668.787 98.832C669.235 98.832 669.699 98.864 670.179 98.928C670.659 98.96 671.107 99.024 671.523 99.12C671.971 99.184 672.355 99.248 672.675 99.312C672.995 99.376 673.219 99.424 673.347 99.456V98.208C673.347 97.472 673.267 96.752 673.107 96.048C672.947 95.312 672.659 94.672 672.243 94.128C671.827 93.552 671.251 93.104 670.515 92.784C669.811 92.432 668.883 92.256 667.731 92.256C666.259 92.256 664.963 92.368 663.843 92.592C662.755 92.784 661.939 92.992 661.395 93.216L660.867 89.52C661.443 89.264 662.403 89.024 663.747 88.8C665.091 88.544 666.547 88.416 668.115 88.416ZM703.914 89.04C702.666 93.712 701.194 98.192 699.498 102.48C697.834 106.768 696.218 110.608 694.65 114H690.618C689.05 110.608 687.418 106.768 685.722 102.48C684.058 98.192 682.602 93.712 681.354 89.04H686.154C686.538 90.608 686.986 92.288 687.498 94.08C688.042 95.84 688.602 97.6 689.178 99.36C689.786 101.088 690.394 102.768 691.002 104.4C691.61 106.032 692.186 107.488 692.73 108.768C693.274 107.488 693.85 106.032 694.458 104.4C695.066 102.768 695.658 101.088 696.234 99.36C696.842 97.6 697.402 95.84 697.914 94.08C698.458 92.288 698.922 90.608 699.306 89.04H703.914ZM706.471 101.568C706.471 99.36 706.791 97.44 707.431 95.808C708.071 94.144 708.919 92.768 709.975 91.68C711.031 90.592 712.247 89.776 713.623 89.232C714.999 88.688 716.407 88.416 717.847 88.416C721.207 88.416 723.783 89.472 725.575 91.584C727.367 93.664 728.263 96.848 728.263 101.136C728.263 101.328 728.263 101.584 728.263 101.904C728.263 102.192 728.247 102.464 728.215 102.72H711.127C711.319 105.312 712.071 107.28 713.383 108.624C714.695 109.968 716.743 110.64 719.527 110.64C721.095 110.64 722.407 110.512 723.463 110.256C724.551 109.968 725.367 109.696 725.911 109.44L726.535 113.184C725.991 113.472 725.031 113.776 723.655 114.096C722.311 114.416 720.775 114.576 719.047 114.576C716.871 114.576 714.983 114.256 713.383 113.616C711.815 112.944 710.519 112.032 709.495 110.88C708.471 109.728 707.703 108.368 707.191 106.8C706.711 105.2 706.471 103.456 706.471 101.568ZM723.607 99.12C723.639 97.104 723.127 95.456 722.071 94.176C721.047 92.864 719.623 92.208 717.799 92.208C716.775 92.208 715.863 92.416 715.063 92.832C714.295 93.216 713.639 93.728 713.095 94.368C712.551 95.008 712.119 95.744 711.799 96.576C711.511 97.408 711.319 98.256 711.223 99.12H723.607ZM766.185 114C765.289 111.696 764.329 109.072 763.305 106.128C762.313 103.152 761.401 100.064 760.569 96.864C759.737 100.064 758.825 103.152 757.833 106.128C756.841 109.072 755.897 111.696 755.001 114H751.113C749.641 110.704 748.201 106.944 746.793 102.72C745.385 98.496 744.057 93.936 742.809 89.04H747.609C747.929 90.544 748.313 92.176 748.761 93.936C749.209 95.696 749.673 97.456 750.153 99.216C750.665 100.976 751.193 102.672 751.737 104.304C752.281 105.936 752.793 107.36 753.273 108.576C753.817 107.072 754.345 105.488 754.857 103.824C755.401 102.128 755.913 100.432 756.393 98.736C756.873 97.008 757.321 95.328 757.737 93.696C758.185 92.032 758.569 90.48 758.889 89.04H762.585C762.873 90.48 763.225 92.032 763.641 93.696C764.057 95.328 764.505 97.008 764.985 98.736C765.465 100.432 765.961 102.128 766.473 103.824C767.017 105.488 767.561 107.072 768.105 108.576C768.585 107.36 769.081 105.936 769.593 104.304C770.137 102.672 770.665 100.976 771.177 99.216C771.689 97.456 772.169 95.696 772.617 93.936C773.065 92.176 773.449 90.544 773.769 89.04H778.377C777.129 93.936 775.801 98.496 774.393 102.72C772.985 106.944 771.545 110.704 770.073 114H766.185ZM787.562 114H783.098V89.04H787.562V114ZM785.306 84.528C784.506 84.528 783.818 84.272 783.242 83.76C782.698 83.216 782.426 82.496 782.426 81.6C782.426 80.704 782.698 80 783.242 79.488C783.818 78.944 784.506 78.672 785.306 78.672C786.106 78.672 786.778 78.944 787.322 79.488C787.898 80 788.186 80.704 788.186 81.6C788.186 82.496 787.898 83.216 787.322 83.76C786.778 84.272 786.106 84.528 785.306 84.528ZM799.414 89.04H808.87V92.784H799.414V104.304C799.414 105.552 799.51 106.592 799.702 107.424C799.894 108.224 800.182 108.864 800.566 109.344C800.95 109.792 801.43 110.112 802.006 110.304C802.582 110.496 803.254 110.592 804.022 110.592C805.366 110.592 806.438 110.448 807.238 110.16C808.07 109.84 808.646 109.616 808.966 109.488L809.83 113.184C809.382 113.408 808.598 113.68 807.478 114C806.358 114.352 805.078 114.528 803.638 114.528C801.942 114.528 800.534 114.32 799.414 113.904C798.326 113.456 797.446 112.8 796.774 111.936C796.102 111.072 795.622 110.016 795.334 108.768C795.078 107.488 794.95 106.016 794.95 104.352V82.08L799.414 81.312V89.04ZM814.551 114V77.52L819.015 76.752V89.52C819.847 89.2 820.727 88.96 821.655 88.8C822.615 88.608 823.559 88.512 824.487 88.512C826.471 88.512 828.119 88.8 829.431 89.376C830.743 89.92 831.783 90.704 832.551 91.728C833.351 92.72 833.911 93.92 834.231 95.328C834.551 96.736 834.711 98.288 834.711 99.984V114H830.247V100.944C830.247 99.408 830.135 98.096 829.911 97.008C829.719 95.92 829.383 95.04 828.903 94.368C828.423 93.696 827.783 93.216 826.983 92.928C826.183 92.608 825.191 92.448 824.007 92.448C823.527 92.448 823.031 92.48 822.519 92.544C822.007 92.608 821.511 92.688 821.031 92.784C820.583 92.848 820.167 92.928 819.783 93.024C819.431 93.12 819.175 93.2 819.015 93.264V114H814.551ZM293.094 144.04H302.55V147.784H293.094V159.304C293.094 160.552 293.19 161.592 293.382 162.424C293.574 163.224 293.862 163.864 294.246 164.344C294.63 164.792 295.11 165.112 295.686 165.304C296.262 165.496 296.934 165.592 297.702 165.592C299.046 165.592 300.118 165.448 300.918 165.16C301.75 164.84 302.326 164.616 302.646 164.488L303.51 168.184C303.062 168.408 302.278 168.68 301.158 169C300.038 169.352 298.758 169.528 297.318 169.528C295.622 169.528 294.214 169.32 293.094 168.904C292.006 168.456 291.126 167.8 290.454 166.936C289.782 166.072 289.302 165.016 289.014 163.768C288.758 162.488 288.63 161.016 288.63 159.352V137.08L293.094 136.312V144.04ZM308.231 169V132.52L312.695 131.752V144.52C313.527 144.2 314.407 143.96 315.335 143.8C316.295 143.608 317.239 143.512 318.167 143.512C320.151 143.512 321.799 143.8 323.111 144.376C324.423 144.92 325.463 145.704 326.231 146.728C327.031 147.72 327.591 148.92 327.911 150.328C328.231 151.736 328.391 153.288 328.391 154.984V169H323.927V155.944C323.927 154.408 323.815 153.096 323.591 152.008C323.399 150.92 323.063 150.04 322.583 149.368C322.103 148.696 321.463 148.216 320.663 147.928C319.863 147.608 318.871 147.448 317.687 147.448C317.207 147.448 316.711 147.48 316.199 147.544C315.687 147.608 315.191 147.688 314.711 147.784C314.263 147.848 313.847 147.928 313.463 148.024C313.111 148.12 312.855 148.2 312.695 148.264V169H308.231ZM334.261 156.568C334.261 154.36 334.581 152.44 335.221 150.808C335.861 149.144 336.709 147.768 337.765 146.68C338.821 145.592 340.037 144.776 341.413 144.232C342.789 143.688 344.197 143.416 345.637 143.416C348.997 143.416 351.573 144.472 353.365 146.584C355.157 148.664 356.052 151.848 356.052 156.136C356.052 156.328 356.052 156.584 356.052 156.904C356.052 157.192 356.036 157.464 356.005 157.72H338.917C339.109 160.312 339.861 162.28 341.173 163.624C342.485 164.968 344.533 165.64 347.317 165.64C348.885 165.64 350.197 165.512 351.253 165.256C352.341 164.968 353.157 164.696 353.701 164.44L354.325 168.184C353.781 168.472 352.821 168.776 351.445 169.096C350.101 169.416 348.565 169.576 346.837 169.576C344.661 169.576 342.773 169.256 341.173 168.616C339.605 167.944 338.309 167.032 337.285 165.88C336.261 164.728 335.493 163.368 334.98 161.8C334.501 160.2 334.261 158.456 334.261 156.568ZM351.397 154.12C351.429 152.104 350.917 150.456 349.861 149.176C348.837 147.864 347.413 147.208 345.589 147.208C344.565 147.208 343.653 147.416 342.853 147.832C342.085 148.216 341.429 148.728 340.885 149.368C340.341 150.008 339.909 150.744 339.589 151.576C339.301 152.408 339.109 153.256 339.013 154.12H351.397ZM379.382 165.784C381.206 165.784 382.55 165.544 383.414 165.064C384.31 164.584 384.758 163.816 384.758 162.76C384.758 161.672 384.326 160.808 383.462 160.168C382.598 159.528 381.174 158.808 379.19 158.008C378.23 157.624 377.302 157.24 376.406 156.856C375.542 156.44 374.79 155.96 374.15 155.416C373.51 154.872 372.998 154.216 372.614 153.448C372.23 152.68 372.038 151.736 372.038 150.616C372.038 148.408 372.854 146.664 374.486 145.384C376.118 144.072 378.342 143.416 381.158 143.416C381.862 143.416 382.566 143.464 383.27 143.56C383.974 143.624 384.63 143.72 385.238 143.848C385.846 143.944 386.374 144.056 386.822 144.184C387.302 144.312 387.67 144.424 387.926 144.52L387.11 148.36C386.63 148.104 385.878 147.848 384.854 147.592C383.83 147.304 382.598 147.16 381.158 147.16C379.91 147.16 378.822 147.416 377.894 147.928C376.966 148.408 376.502 149.176 376.502 150.232C376.502 150.776 376.598 151.256 376.79 151.672C377.014 152.088 377.334 152.472 377.75 152.824C378.198 153.144 378.742 153.448 379.382 153.736C380.022 154.024 380.79 154.328 381.686 154.648C382.87 155.096 383.926 155.544 384.854 155.992C385.782 156.408 386.566 156.904 387.206 157.48C387.878 158.056 388.39 158.76 388.742 159.592C389.094 160.392 389.27 161.384 389.27 162.568C389.27 164.872 388.406 166.616 386.678 167.8C384.982 168.984 382.55 169.576 379.382 169.576C377.174 169.576 375.446 169.384 374.198 169C372.95 168.648 372.102 168.376 371.654 168.184L372.47 164.344C372.982 164.536 373.798 164.824 374.918 165.208C376.038 165.592 377.526 165.784 379.382 165.784ZM404.02 155.272C404.98 156.008 405.988 156.92 407.044 158.008C408.132 159.096 409.188 160.28 410.212 161.56C411.268 162.808 412.26 164.088 413.188 165.4C414.116 166.68 414.9 167.88 415.54 169H410.308C409.636 167.88 408.852 166.744 407.956 165.592C407.092 164.408 406.18 163.288 405.22 162.232C404.26 161.144 403.284 160.152 402.292 159.256C401.3 158.36 400.356 157.608 399.46 157V169H394.996V132.52L399.46 131.752V154.504C400.228 153.736 401.076 152.888 402.004 151.96C402.932 151.032 403.844 150.088 404.74 149.128C405.636 148.168 406.484 147.256 407.284 146.392C408.084 145.496 408.772 144.712 409.348 144.04H414.58C413.844 144.84 413.044 145.72 412.18 146.68C411.316 147.64 410.42 148.616 409.492 149.608C408.564 150.568 407.62 151.544 406.66 152.536C405.732 153.496 404.852 154.408 404.02 155.272ZM424.538 169H420.074V144.04H424.538V169ZM422.282 139.528C421.482 139.528 420.794 139.272 420.218 138.76C419.674 138.216 419.402 137.496 419.402 136.6C419.402 135.704 419.674 135 420.218 134.488C420.794 133.944 421.482 133.672 422.282 133.672C423.082 133.672 423.754 133.944 424.298 134.488C424.874 135 425.162 135.704 425.162 136.6C425.162 137.496 424.874 138.216 424.298 138.76C423.754 139.272 423.082 139.528 422.282 139.528ZM439.703 169.48C436.951 169.416 434.999 168.824 433.847 167.704C432.695 166.584 432.119 164.84 432.119 162.472V132.52L436.583 131.752V161.752C436.583 162.488 436.647 163.096 436.775 163.576C436.903 164.056 437.111 164.44 437.399 164.728C437.687 165.016 438.071 165.24 438.551 165.4C439.031 165.528 439.623 165.64 440.327 165.736L439.703 169.48ZM452.828 169.48C450.076 169.416 448.124 168.824 446.972 167.704C445.82 166.584 445.244 164.84 445.244 162.472V132.52L449.708 131.752V161.752C449.708 162.488 449.772 163.096 449.9 163.576C450.028 164.056 450.236 164.44 450.524 164.728C450.812 165.016 451.196 165.24 451.676 165.4C452.156 165.528 452.748 165.64 453.452 165.736L452.828 169.48ZM464.273 165.784C466.097 165.784 467.441 165.544 468.305 165.064C469.201 164.584 469.649 163.816 469.649 162.76C469.649 161.672 469.217 160.808 468.353 160.168C467.489 159.528 466.065 158.808 464.081 158.008C463.121 157.624 462.193 157.24 461.297 156.856C460.433 156.44 459.681 155.96 459.041 155.416C458.401 154.872 457.889 154.216 457.505 153.448C457.121 152.68 456.929 151.736 456.929 150.616C456.929 148.408 457.745 146.664 459.377 145.384C461.009 144.072 463.233 143.416 466.049 143.416C466.753 143.416 467.457 143.464 468.161 143.56C468.865 143.624 469.521 143.72 470.129 143.848C470.737 143.944 471.265 144.056 471.713 144.184C472.193 144.312 472.561 144.424 472.817 144.52L472.001 148.36C471.521 148.104 470.769 147.848 469.745 147.592C468.721 147.304 467.489 147.16 466.049 147.16C464.801 147.16 463.713 147.416 462.785 147.928C461.857 148.408 461.393 149.176 461.393 150.232C461.393 150.776 461.489 151.256 461.681 151.672C461.905 152.088 462.225 152.472 462.641 152.824C463.089 153.144 463.633 153.448 464.273 153.736C464.913 154.024 465.681 154.328 466.577 154.648C467.761 155.096 468.817 155.544 469.745 155.992C470.673 156.408 471.457 156.904 472.097 157.48C472.769 158.056 473.281 158.76 473.633 159.592C473.985 160.392 474.161 161.384 474.161 162.568C474.161 164.872 473.297 166.616 471.569 167.8C469.873 168.984 467.441 169.576 464.273 169.576C462.065 169.576 460.337 169.384 459.089 169C457.841 168.648 456.993 168.376 456.545 168.184L457.361 164.344C457.873 164.536 458.689 164.824 459.809 165.208C460.929 165.592 462.417 165.784 464.273 165.784ZM513.028 156.52C513.028 158.504 512.74 160.296 512.164 161.896C511.588 163.496 510.772 164.872 509.716 166.024C508.692 167.176 507.46 168.072 506.02 168.712C504.58 169.32 503.012 169.624 501.316 169.624C499.62 169.624 498.052 169.32 496.612 168.712C495.172 168.072 493.924 167.176 492.868 166.024C491.844 164.872 491.044 163.496 490.468 161.896C489.892 160.296 489.604 158.504 489.604 156.52C489.604 154.568 489.892 152.792 490.468 151.192C491.044 149.56 491.844 148.168 492.868 147.016C493.924 145.864 495.172 144.984 496.612 144.376C498.052 143.736 499.62 143.416 501.316 143.416C503.012 143.416 504.58 143.736 506.02 144.376C507.46 144.984 508.692 145.864 509.716 147.016C510.772 148.168 511.588 149.56 512.164 151.192C512.74 152.792 513.028 154.568 513.028 156.52ZM508.372 156.52C508.372 153.704 507.732 151.48 506.452 149.848C505.204 148.184 503.492 147.352 501.316 147.352C499.14 147.352 497.412 148.184 496.132 149.848C494.884 151.48 494.26 153.704 494.26 156.52C494.26 159.336 494.884 161.576 496.132 163.24C497.412 164.872 499.14 165.688 501.316 165.688C503.492 165.688 505.204 164.872 506.452 163.24C507.732 161.576 508.372 159.336 508.372 156.52ZM523.485 144.04H532.941V147.784H523.485V159.304C523.485 160.552 523.581 161.592 523.773 162.424C523.965 163.224 524.253 163.864 524.637 164.344C525.021 164.792 525.501 165.112 526.077 165.304C526.653 165.496 527.325 165.592 528.093 165.592C529.437 165.592 530.509 165.448 531.309 165.16C532.141 164.84 532.717 164.616 533.037 164.488L533.901 168.184C533.453 168.408 532.669 168.68 531.549 169C530.429 169.352 529.149 169.528 527.709 169.528C526.013 169.528 524.605 169.32 523.485 168.904C522.397 168.456 521.517 167.8 520.845 166.936C520.173 166.072 519.693 165.016 519.405 163.768C519.149 162.488 519.021 161.016 519.021 159.352V137.08L523.485 136.312V144.04ZM538.621 169V132.52L543.085 131.752V144.52C543.917 144.2 544.797 143.96 545.725 143.8C546.685 143.608 547.629 143.512 548.557 143.512C550.541 143.512 552.189 143.8 553.501 144.376C554.813 144.92 555.853 145.704 556.621 146.728C557.421 147.72 557.981 148.92 558.301 150.328C558.621 151.736 558.781 153.288 558.781 154.984V169H554.317V155.944C554.317 154.408 554.205 153.096 553.981 152.008C553.789 150.92 553.453 150.04 552.973 149.368C552.493 148.696 551.853 148.216 551.053 147.928C550.253 147.608 549.261 147.448 548.077 147.448C547.597 147.448 547.101 147.48 546.589 147.544C546.077 147.608 545.581 147.688 545.101 147.784C544.653 147.848 544.237 147.928 543.853 148.024C543.501 148.12 543.245 148.2 543.085 148.264V169H538.621ZM564.651 156.568C564.651 154.36 564.971 152.44 565.611 150.808C566.251 149.144 567.099 147.768 568.155 146.68C569.211 145.592 570.427 144.776 571.803 144.232C573.179 143.688 574.587 143.416 576.027 143.416C579.387 143.416 581.963 144.472 583.755 146.584C585.547 148.664 586.443 151.848 586.443 156.136C586.443 156.328 586.443 156.584 586.443 156.904C586.443 157.192 586.427 157.464 586.395 157.72H569.307C569.499 160.312 570.251 162.28 571.563 163.624C572.875 164.968 574.923 165.64 577.707 165.64C579.275 165.64 580.587 165.512 581.643 165.256C582.731 164.968 583.547 164.696 584.091 164.44L584.715 168.184C584.171 168.472 583.211 168.776 581.835 169.096C580.491 169.416 578.955 169.576 577.227 169.576C575.051 169.576 573.163 169.256 571.563 168.616C569.995 167.944 568.699 167.032 567.675 165.88C566.651 164.728 565.883 163.368 565.371 161.8C564.891 160.2 564.651 158.456 564.651 156.568ZM581.787 154.12C581.819 152.104 581.307 150.456 580.251 149.176C579.227 147.864 577.803 147.208 575.979 147.208C574.955 147.208 574.043 147.416 573.243 147.832C572.475 148.216 571.819 148.728 571.275 149.368C570.731 150.008 570.299 150.744 569.979 151.576C569.691 152.408 569.499 153.256 569.403 154.12H581.787ZM602.072 143.512C602.456 143.512 602.888 143.544 603.368 143.608C603.88 143.64 604.376 143.704 604.856 143.8C605.336 143.864 605.768 143.944 606.152 144.04C606.568 144.104 606.872 144.168 607.064 144.232L606.296 148.12C605.944 147.992 605.352 147.848 604.52 147.688C603.72 147.496 602.68 147.4 601.4 147.4C600.568 147.4 599.736 147.496 598.904 147.688C598.104 147.848 597.576 147.96 597.32 148.024V169H592.856V145.096C593.912 144.712 595.224 144.36 596.792 144.04C598.36 143.688 600.12 143.512 602.072 143.512ZM617.179 165.784C619.003 165.784 620.347 165.544 621.211 165.064C622.107 164.584 622.555 163.816 622.555 162.76C622.555 161.672 622.123 160.808 621.259 160.168C620.395 159.528 618.971 158.808 616.987 158.008C616.027 157.624 615.099 157.24 614.203 156.856C613.339 156.44 612.587 155.96 611.947 155.416C611.307 154.872 610.795 154.216 610.411 153.448C610.027 152.68 609.835 151.736 609.835 150.616C609.835 148.408 610.651 146.664 612.283 145.384C613.915 144.072 616.139 143.416 618.955 143.416C619.659 143.416 620.363 143.464 621.067 143.56C621.771 143.624 622.427 143.72 623.035 143.848C623.643 143.944 624.171 144.056 624.619 144.184C625.099 144.312 625.467 144.424 625.723 144.52L624.907 148.36C624.427 148.104 623.675 147.848 622.651 147.592C621.627 147.304 620.395 147.16 618.955 147.16C617.707 147.16 616.619 147.416 615.691 147.928C614.763 148.408 614.299 149.176 614.299 150.232C614.299 150.776 614.395 151.256 614.587 151.672C614.811 152.088 615.131 152.472 615.547 152.824C615.995 153.144 616.539 153.448 617.179 153.736C617.819 154.024 618.587 154.328 619.483 154.648C620.667 155.096 621.723 155.544 622.651 155.992C623.579 156.408 624.363 156.904 625.003 157.48C625.675 158.056 626.187 158.76 626.539 159.592C626.891 160.392 627.067 161.384 627.067 162.568C627.067 164.872 626.203 166.616 624.475 167.8C622.779 168.984 620.347 169.576 617.179 169.576C614.971 169.576 613.243 169.384 611.995 169C610.747 168.648 609.899 168.376 609.451 168.184L610.267 164.344C610.779 164.536 611.595 164.824 612.715 165.208C613.835 165.592 615.323 165.784 617.179 165.784ZM643.903 169V132.52L648.367 131.752V144.52C649.199 144.2 650.079 143.96 651.007 143.8C651.967 143.608 652.911 143.512 653.839 143.512C655.823 143.512 657.471 143.8 658.783 144.376C660.095 144.92 661.135 145.704 661.903 146.728C662.703 147.72 663.263 148.92 663.583 150.328C663.903 151.736 664.062 153.288 664.062 154.984V169H659.599V155.944C659.599 154.408 659.487 153.096 659.263 152.008C659.071 150.92 658.735 150.04 658.255 149.368C657.775 148.696 657.135 148.216 656.335 147.928C655.535 147.608 654.543 147.448 653.359 147.448C652.879 147.448 652.383 147.48 651.871 147.544C651.359 147.608 650.863 147.688 650.383 147.784C649.935 147.848 649.519 147.928 649.135 148.024C648.783 148.12 648.527 148.2 648.367 148.264V169H643.903ZM679.772 165.784C680.828 165.784 681.756 165.768 682.556 165.736C683.388 165.672 684.076 165.576 684.62 165.448V158.008C684.3 157.848 683.772 157.72 683.036 157.624C682.332 157.496 681.468 157.432 680.444 157.432C679.772 157.432 679.052 157.48 678.284 157.576C677.548 157.672 676.86 157.88 676.22 158.2C675.612 158.488 675.1 158.904 674.684 159.448C674.268 159.96 674.06 160.648 674.06 161.512C674.06 163.112 674.572 164.232 675.596 164.872C676.62 165.48 678.012 165.784 679.772 165.784ZM679.388 143.416C681.18 143.416 682.684 143.656 683.9 144.136C685.148 144.584 686.14 145.24 686.876 146.104C687.644 146.936 688.188 147.944 688.508 149.128C688.828 150.28 688.988 151.56 688.988 152.968V168.568C688.604 168.632 688.06 168.728 687.356 168.856C686.684 168.952 685.916 169.048 685.052 169.144C684.188 169.24 683.244 169.32 682.22 169.384C681.228 169.48 680.236 169.528 679.244 169.528C677.836 169.528 676.54 169.384 675.356 169.096C674.172 168.808 673.148 168.36 672.284 167.752C671.42 167.112 670.748 166.28 670.268 165.256C669.788 164.232 669.548 163 669.548 161.56C669.548 160.184 669.82 159 670.364 158.008C670.94 157.016 671.708 156.216 672.668 155.608C673.628 155 674.748 154.552 676.028 154.264C677.308 153.976 678.652 153.832 680.06 153.832C680.508 153.832 680.972 153.864 681.452 153.928C681.932 153.96 682.38 154.024 682.796 154.12C683.244 154.184 683.628 154.248 683.948 154.312C684.268 154.376 684.492 154.424 684.62 154.456V153.208C684.62 152.472 684.54 151.752 684.38 151.048C684.22 150.312 683.932 149.672 683.516 149.128C683.1 148.552 682.524 148.104 681.788 147.784C681.084 147.432 680.156 147.256 679.004 147.256C677.532 147.256 676.236 147.368 675.116 147.592C674.028 147.784 673.212 147.992 672.668 148.216L672.14 144.52C672.716 144.264 673.676 144.024 675.02 143.8C676.364 143.544 677.82 143.416 679.388 143.416ZM715.187 144.04C713.939 148.712 712.467 153.192 710.771 157.48C709.107 161.768 707.491 165.608 705.923 169H701.891C700.323 165.608 698.691 161.768 696.995 157.48C695.331 153.192 693.875 148.712 692.627 144.04H697.427C697.811 145.608 698.259 147.288 698.771 149.08C699.315 150.84 699.875 152.6 700.451 154.36C701.059 156.088 701.667 157.768 702.275 159.4C702.883 161.032 703.459 162.488 704.003 163.768C704.547 162.488 705.123 161.032 705.731 159.4C706.339 157.768 706.931 156.088 707.507 154.36C708.115 152.6 708.675 150.84 709.187 149.08C709.731 147.288 710.195 145.608 710.579 144.04H715.187ZM717.745 156.568C717.745 154.36 718.065 152.44 718.705 150.808C719.345 149.144 720.193 147.768 721.249 146.68C722.305 145.592 723.521 144.776 724.897 144.232C726.273 143.688 727.681 143.416 729.121 143.416C732.481 143.416 735.057 144.472 736.849 146.584C738.641 148.664 739.537 151.848 739.537 156.136C739.537 156.328 739.537 156.584 739.537 156.904C739.537 157.192 739.521 157.464 739.489 157.72H722.401C722.593 160.312 723.345 162.28 724.657 163.624C725.969 164.968 728.017 165.64 730.801 165.64C732.369 165.64 733.681 165.512 734.737 165.256C735.825 164.968 736.641 164.696 737.185 164.44L737.809 168.184C737.265 168.472 736.305 168.776 734.929 169.096C733.585 169.416 732.049 169.576 730.321 169.576C728.145 169.576 726.257 169.256 724.657 168.616C723.089 167.944 721.793 167.032 720.769 165.88C719.745 164.728 718.977 163.368 718.465 161.8C717.985 160.2 717.745 158.456 717.745 156.568ZM734.881 154.12C734.913 152.104 734.401 150.456 733.345 149.176C732.321 147.864 730.897 147.208 729.073 147.208C728.049 147.208 727.137 147.416 726.337 147.832C725.569 148.216 724.913 148.728 724.369 149.368C723.825 150.008 723.393 150.744 723.073 151.576C722.785 152.408 722.593 153.256 722.497 154.12H734.881ZM751.229 166.408C751.229 167.272 750.941 168.024 750.365 168.664C749.789 169.304 749.005 169.624 748.013 169.624C747.021 169.624 746.237 169.304 745.661 168.664C745.085 168.024 744.797 167.272 744.797 166.408C744.797 165.544 745.085 164.792 745.661 164.152C746.237 163.512 747.021 163.192 748.013 163.192C749.005 163.192 749.789 163.512 750.365 164.152C750.941 164.792 751.229 165.544 751.229 166.408Z" fill="white"/>
</svg>
