<svg width="150" height="150" viewBox="0 0 150 150" fill="none" xmlns="http://www.w3.org/2000/svg">
<path d="M23.472 69V55.368H18.096V52.2H32.736V55.368H27.36V69H23.472ZM39.7307 69.192C38.6587 69.192 37.6987 68.984 36.8507 68.568C36.0187 68.152 35.3707 67.52 34.9067 66.672C34.4427 65.808 34.2107 64.712 34.2107 63.384V56.088H37.9547V62.832C37.9547 63.904 38.1787 64.696 38.6267 65.208C39.0907 65.704 39.7387 65.952 40.5707 65.952C41.1467 65.952 41.6587 65.832 42.1067 65.592C42.5547 65.336 42.9067 64.952 43.1627 64.44C43.4187 63.912 43.5467 63.256 43.5467 62.472V56.088H47.2907V69H43.7387V65.448L44.3867 66.48C43.9547 67.376 43.3147 68.056 42.4667 68.52C41.6347 68.968 40.7227 69.192 39.7307 69.192ZM53.8553 66.36L53.9513 61.8L59.9753 56.088H64.4393L58.6553 61.968L56.7113 63.552L53.8553 66.36ZM50.7593 69V51.192H54.5033V69H50.7593ZM60.3833 69L56.0153 63.576L58.3673 60.672L64.9193 69H60.3833ZM74.2886 69V66.48L74.0486 65.928V61.416C74.0486 60.616 73.8006 59.992 73.3046 59.544C72.8246 59.096 72.0806 58.872 71.0726 58.872C70.3846 58.872 69.7046 58.984 69.0326 59.208C68.3766 59.416 67.8166 59.704 67.3526 60.072L66.0086 57.456C66.7126 56.96 67.5606 56.576 68.5526 56.304C69.5446 56.032 70.5526 55.896 71.5766 55.896C73.5446 55.896 75.0726 56.36 76.1606 57.288C77.2486 58.216 77.7926 59.664 77.7926 61.632V69H74.2886ZM70.3526 69.192C69.3446 69.192 68.4806 69.024 67.7606 68.688C67.0406 68.336 66.4886 67.864 66.1046 67.272C65.7206 66.68 65.5286 66.016 65.5286 65.28C65.5286 64.512 65.7126 63.84 66.0806 63.264C66.4646 62.688 67.0646 62.24 67.8806 61.92C68.6966 61.584 69.7606 61.416 71.0726 61.416H74.5046V63.6H71.4806C70.6006 63.6 69.9926 63.744 69.6566 64.032C69.3366 64.32 69.1766 64.68 69.1766 65.112C69.1766 65.592 69.3606 65.976 69.7286 66.264C70.1126 66.536 70.6326 66.672 71.2886 66.672C71.9126 66.672 72.4726 66.528 72.9686 66.24C73.4646 65.936 73.8246 65.496 74.0486 64.92L74.6246 66.648C74.3526 67.48 73.8566 68.112 73.1366 68.544C72.4166 68.976 71.4886 69.192 70.3526 69.192ZM81.1811 69V56.088H84.7571V59.736L84.2531 58.68C84.6371 57.768 85.2531 57.08 86.1011 56.616C86.9491 56.136 87.9811 55.896 89.1971 55.896V59.352C89.0371 59.336 88.8931 59.328 88.7651 59.328C88.6371 59.312 88.5011 59.304 88.3571 59.304C87.3331 59.304 86.5011 59.6 85.8611 60.192C85.2371 60.768 84.9251 61.672 84.9251 62.904V69H81.1811ZM19.992 98V81.2H23.208L30.36 93.056H28.656L35.688 81.2H38.88L38.928 98H35.28L35.256 86.792H35.928L30.312 96.224H28.56L22.824 86.792H23.64V98H19.992ZM49.0579 98.192C47.5859 98.192 46.2899 97.904 45.1699 97.328C44.0659 96.752 43.2099 95.968 42.6019 94.976C41.9939 93.968 41.6899 92.824 41.6899 91.544C41.6899 90.248 41.9859 89.104 42.5779 88.112C43.1859 87.104 44.0099 86.32 45.0499 85.76C46.0899 85.184 47.2659 84.896 48.5779 84.896C49.8419 84.896 50.9779 85.168 51.9859 85.712C53.0099 86.24 53.8179 87.008 54.4099 88.016C55.0019 89.008 55.2979 90.2 55.2979 91.592C55.2979 91.736 55.2899 91.904 55.2739 92.096C55.2579 92.272 55.2419 92.44 55.2259 92.6H44.7379V90.416H53.2579L51.8179 91.064C51.8179 90.392 51.6819 89.808 51.4099 89.312C51.1379 88.816 50.7619 88.432 50.2819 88.16C49.8019 87.872 49.2419 87.728 48.6019 87.728C47.9619 87.728 47.3939 87.872 46.8979 88.16C46.4179 88.432 46.0419 88.824 45.7699 89.336C45.4979 89.832 45.3619 90.424 45.3619 91.112V91.688C45.3619 92.392 45.5139 93.016 45.8179 93.56C46.1379 94.088 46.5779 94.496 47.1379 94.784C47.7139 95.056 48.3859 95.192 49.1539 95.192C49.8419 95.192 50.4419 95.088 50.9539 94.88C51.4819 94.672 51.9619 94.36 52.3939 93.944L54.3859 96.104C53.7939 96.776 53.0499 97.296 52.1539 97.664C51.2579 98.016 50.2259 98.192 49.0579 98.192ZM65.6385 84.896C66.6625 84.896 67.5745 85.104 68.3745 85.52C69.1905 85.92 69.8305 86.544 70.2945 87.392C70.7585 88.224 70.9905 89.296 70.9905 90.608V98H67.2465V91.184C67.2465 90.144 67.0145 89.376 66.5505 88.88C66.1025 88.384 65.4625 88.136 64.6305 88.136C64.0385 88.136 63.5025 88.264 63.0225 88.52C62.5585 88.76 62.1905 89.136 61.9185 89.648C61.6625 90.16 61.5345 90.816 61.5345 91.616V98H57.7905V85.088H61.3665V88.664L60.6945 87.584C61.1585 86.72 61.8225 86.056 62.6865 85.592C63.5505 85.128 64.5345 84.896 65.6385 84.896ZM79.8323 98.192C78.7603 98.192 77.8003 97.984 76.9523 97.568C76.1203 97.152 75.4723 96.52 75.0083 95.672C74.5443 94.808 74.3123 93.712 74.3123 92.384V85.088H78.0563V91.832C78.0563 92.904 78.2803 93.696 78.7283 94.208C79.1923 94.704 79.8403 94.952 80.6723 94.952C81.2483 94.952 81.7603 94.832 82.2083 94.592C82.6563 94.336 83.0083 93.952 83.2643 93.44C83.5203 92.912 83.6483 92.256 83.6483 91.472V85.088H87.3923V98H83.8403V94.448L84.4883 95.48C84.0563 96.376 83.4163 97.056 82.5683 97.52C81.7363 97.968 80.8243 98.192 79.8323 98.192ZM93.9568 95.36L94.0528 90.8L100.077 85.088H104.541L98.7568 90.968L96.8128 92.552L93.9568 95.36ZM90.8608 98V80.192H94.6048V98H90.8608ZM100.485 98L96.1168 92.576L98.4688 89.672L105.021 98H100.485ZM114.39 98V95.48L114.15 94.928V90.416C114.15 89.616 113.902 88.992 113.406 88.544C112.926 88.096 112.182 87.872 111.174 87.872C110.486 87.872 109.806 87.984 109.134 88.208C108.478 88.416 107.918 88.704 107.454 89.072L106.11 86.456C106.814 85.96 107.662 85.576 108.654 85.304C109.646 85.032 110.654 84.896 111.678 84.896C113.646 84.896 115.174 85.36 116.262 86.288C117.35 87.216 117.894 88.664 117.894 90.632V98H114.39ZM110.454 98.192C109.446 98.192 108.582 98.024 107.862 97.688C107.142 97.336 106.59 96.864 106.206 96.272C105.822 95.68 105.63 95.016 105.63 94.28C105.63 93.512 105.814 92.84 106.182 92.264C106.566 91.688 107.166 91.24 107.982 90.92C108.798 90.584 109.862 90.416 111.174 90.416H114.606V92.6H111.582C110.702 92.6 110.094 92.744 109.758 93.032C109.438 93.32 109.278 93.68 109.278 94.112C109.278 94.592 109.462 94.976 109.83 95.264C110.214 95.536 110.734 95.672 111.39 95.672C112.014 95.672 112.574 95.528 113.07 95.24C113.566 94.936 113.926 94.496 114.15 93.92L114.726 95.648C114.454 96.48 113.958 97.112 113.238 97.544C112.518 97.976 111.59 98.192 110.454 98.192ZM121.283 98V85.088H124.859V88.736L124.355 87.68C124.739 86.768 125.355 86.08 126.203 85.616C127.051 85.136 128.083 84.896 129.299 84.896V88.352C129.139 88.336 128.995 88.328 128.867 88.328C128.739 88.312 128.603 88.304 128.459 88.304C127.435 88.304 126.603 88.6 125.963 89.192C125.339 89.768 125.027 90.672 125.027 91.904V98H121.283Z" fill="#6B7280"/>
</svg>
